<?xml version="1.0" encoding="utf-8"?><svg enable-background="new 0 0 400 575.3" height="575.3" viewBox="0 0 400 575.3" width="400" xmlns="http://www.w3.org/2000/svg"><path d="m174 504.8s-12.8 7.5-14.8 12.6 30.9 35.4 30.9 35.4l5.4-14.6-3.3-21.5z" fill="#fff"/><path d="m196.1 537.9-3.3-21.5c0-.7 0-.2-18.5-12.5-.3-.2-.6-.2-1 0l.1.1c-1.4.9-15.3 9.3-15.3 13.8 0 6.4 29.4 33.6 31.2 35.4.4.4 1.2.1 1.4-.3 6.1-15.9 5.6-14.7 5.4-15zm-6.4 13.5c-5-5.4-27.1-24.2-29.6-33.6 1.6-3.8 11.4-10.6 13.9-11.9l17.4 11.3 3.2 20.9z"/><path d="m259.4 441.2c40.2 40.5-35.1 66.1-49.2 65.5l-3.5-24 17.3-16.9z" fill="#596c4c"/><path d="m258.8 440.4-35.4 24.7c-18.3 18-17.7 16.8-17.7 17.7 3.7 22.8 2.9 25 4.5 24.7 30.1-1.7 87.5-33.1 48.6-67.1zm-48.1 65.5-3.3-22.7 17-16.5 34.9-24.3c36.2 38.3-29.2 62.2-48.6 63.5z"/><path d="m158.3 516.9s-5.3 3.3-5 4.1 40.5 36.7 40.5 36.7l1.7-4.6s-34.8-34.4-37.2-36.2z" fill="#fff"/><path d="m196.2 552.6c-38.2-37.5-37.2-37-38.2-36.3l.3.7-.4-.7c.3 0-6.6 3.5-5.4 5.4 17.4 16 43.6 40 41.5 37 .9-.3.5-.7 2.3-5.1.2-.4.1-.8-.1-1zm-2.7 3.5c-6.3-5.7-35.5-31.9-39.1-35.3 1.8-1.7 3.1-2.3 3.8-2.9 1.6 1.6 8.7 8.5 36.3 35.2z"/><path d="m194.8 503.5c-9.2-9.6-13.6-6.1-17.6 2.8 0 .5 5.2 14.1 13 14.4 0 0 6 5.8 11.8 1.9 9.1-6.2-4.9-15.6-7.2-19.1z" fill="#a1141c"/><path d="m190.3 520.6-.6.6c11.4 9.2 25.5-2.2 7.4-16.5-6.9-7.7-14.2-13.2-20.4 1 .5 6 7.4 15.7 13.7 15.8v-.9c-.8.6-1.1 1-.1 0v-.9c-5.7-.3-10.2-8.3-12-13.6l-.6.1h.6c.1-.2-.6.1-.6 0 .2 0 1.3 0 0 0 .1-.1.8.4.6 0h-.6c.7.2.7.2.5.2h.1c5.1-12.5 11.3-8 18.4.2 3.5 3.5 9.5 9.1 7 13.2-3.6 5.8-10.7 2.2-13.2.1z"/><path d="m177.1 535c3.3-4.5 20.1-22.4 27.2-6.9 0 1 6 16 12 22.1 6 6 9.1 10 6.7 13.8s-4.6 1.5-4.6 1.5c1.8 6-4.4 7.6-7.8 4.5-.4 7.8-9.4 5.6-9.3-7.4 0-1.8-1.6 1.7-10.4-9.9-8.7-11.6-13.8-17.7-13.8-17.7z" fill="#a1141c"/><path d="m224.2 558.5c-3.5-8.1-10.6-7.6-19-30.5-7.2-16.7-27.1 1.6-28.8 7.6.8-.5 1.2-.9.1 0 18.1 21.9 16.9 23.3 24.1 26.9 0 1.5-.1 6 2 9.5 2.6 4.5 7.8 4 8.8-.6 3.3 2.2 9.3.2 8.3-4.5 2.8.5 6.5-3.9 4.5-8.4zm-5.1 6.2c-3.6-1.8 1.6 5.9-4.4 5.6-2-.1-2.8-.9-3.4-1.3-.7-.8-1.7.4-1.5.9 0 4.2-4.7 5.1-6.6-.4-1.7-5-.3-7.9-1.6-8.5-6.7-2.1-12.5-13.5-23.4-26 5.3-6.9 19.2-19.3 25.2-6.8.5 2.7 6.7 16.9 12.3 22.5 1.9 1.9 5.8 5.8 6.7 8.5 1.7 3.3-1.6 7.2-3.3 5.5z"/><path d="m205.5 566.7 4.8.3c3.4 10.1-5.9 9.4-4.8-.3z" fill="#fff"/><path d="m205.5 566.7-.1.9 4.8.3.1-.9-.8.3c2.9 8.2-3.7 8.5-3.2-.6h-.8c-.1.8-.2 1.4 0 0h-.9c0 11.7 6.3 8.9 7.1 6.1.5-3.5-.1-6.4-1.4-6.7-4.2-.1-5.7-.7-5.7.6z"/><path d="m202 525.7c-19.5-9.7-14.3 30 2.3 8.7z" fill="#a1141c"/><path d="m202 525.7.4-.8c-14.8-9.5-20 19.3-4.5 15.8 4.7-1.9 7.6-5 7.4-6.7-2.5-9.2-2.2-9-2.8-9.2l-.5.9-.9.3 2.3 8.7.9-.3-.9-.3c-14.4 18.8-19.9-16.1-1.9-7.7l.5-.7c-.1 0-1.9.7 0 0z"/><path d="m179 498.1c-17.6 4.6 9.7 32.8 14.4 22.9 1.2-4-15.7-6.2-12.4-18.6 1.1-4.3-2-4.3-2-4.3z" fill="#a1141c"/><path d="m181.7 502.6c.8-2.9-.2-5.6-3.1-5.5 0 .1.1.1.1.2-19.6 5.3 11.5 37 15.7 23.2-.1-4.6-15.8-6.5-12.7-17.9zm-2.7-3.7c.3.1 1 .3 1.1.7-2.9 14.5 7.2 15.6 12.1 20.6-1.3 9.7-29.5-16.4-13.2-21.3z"/><path d="m203.9 519.1c4.9 0 4.9 8.7 0 8.7s-4.9-8.7 0-8.7z" fill="#fff"/><path d="m208.6 523.4c0-6.9-9.3-6.8-9.3 0 0 6.9 9.3 6.8 9.3 0h-1.7c0 3.1-2.9 4.6-5 2.5-3.8-4.9 4.7-9.1 5-2.5.1 0 1.8 0 1.7 0z"/><path d="m205.4 523.5c0 2.1-2.1 2.1-2.1 0 0-.9 2.1-2.1 2.1 0z" fill="#fff"/><path d="m206.3 523.5c-.8-5.5-6.2 0-2.8 2.2 1.3.8 2.8-.5 2.8-2.2h-1.7c0 .5-.2.6-.3.7 0-.2 0 0 0-.2-.4-.3-.3-1.2 0-1.4v.2c.2.1.3.4.3.7z"/><path d="m219.2 565c-5-4.2-14.1-28.5-14.4-29.1-1.5-3.1.3-2.1-4.4-3.1-.3-1.5-2.2-1.3-1.9.3.3 10.2 10.3 37.9 12.8 37.7.3-1.4.1-1-.3-2.2-8.7-19.1-10.6-30.1-11.1-34.3.6.1 1.5.3 2.7.5-.6-.6 15.6 39.3 16.6 30.2z"/><path d="m199.1 537.3s12.1 1.9 14.5.4c2.3-1.4 3.2-8.6-.2-9.6-3.3-1-16.2-.7-17.3 1-1 1.4-2.3 6.5 3 8.2z" fill="#a1141c"/><path d="m215.2 528.1c-2.2-2.2-14.4-1.6-18.8-.2-11.6 13.2 29.1 17.1 18.8.2zm-2 8.7c-2.6 1.3-14-.6-14-.5-3.6-1.3-3.6-5-2.3-6.9 2.2-1.3 9.8-1.3 13.8-1 5-.7 5.1 5.7 2.5 8.4z"/><path d="m191.6 491s-6.9 1-5.3 4.1c1.5 3 21.2 27.3 21.2 27.3s3.2 2.7 4.1-6c.8-8.6-20-25.4-20-25.4z" fill="#fff"/><path d="m191.4 490.2v-.1s-.1 0-.2 0c-10.6 3.3-9 1.8 15.5 32.8 1.2 1.1 3.3 1 4.6-1.9 6.5-9.7-16.5-28.9-19.9-30.8zm17 31.4c-22.5-29.8-25.3-27.1-16.9-29.6 3.4 2.7 27.4 23.2 16.9 29.6z"/><path d="m211.3 512.8c.8-.8-.4-2-1.2-1.2-5.5 5.6-7.4 6.5-6.3 7.5.3.3 1.8-.7 7.5-6.3z"/><path d="m208.3 508.7c.8-.8-.4-2.1-1.2-1.2-5.5 6-7.4 6.7-6.4 7.7.3.3 1.9-.9 7.6-6.5z"/><path d="m204.4 505.9c.9-.8-.4-2.1-1.2-1.2-4.5 4.9-6.6 5.7-5.5 6.7.3.4 1.7-1 6.7-5.5z"/><path d="m201 502c.8-.8-.2-2-1.1-1.3-4.4 4.3-6.7 5-5.7 6.2.3.4 1.9-.9 6.8-4.9z"/><path d="m191.4 502.5 7.4-3c1.1-.4.2-2.1-.7-1.6-6.4 2.8-10.3 3.4-6.7 4.6z"/><path d="m195 495.5c.9-.5.3-2-.9-1.6-5 3.3-7 3.3-6.4 4.8.3.4 2.2-.5 7.3-3.2z"/><path d="m183.1 494c7.4 0 7.4 9.9 0 9.9s-7.5-9.9 0-9.9z" fill="#fff"/><path d="m189.6 498.9c.3-7.4-13.1-7.6-13.2 0 0 7.5 13.5 7.5 13.2 0h-1.7c.3 5-9.7 5.5-9.7 0s9.7-5.2 9.7 0c.1 0 1.8 0 1.7 0z"/><path d="m184.3 499.3c0 2.1-3.5 2.1-3.5 0 0-.9 3.5-2.1 3.5 0z" fill="#fff"/><path d="m185.1 499.3c0-3.2-5.2-3.2-5.2 0s5.2 3.2 5.2 0h-1.7c0 .8-1.1.9-1.4.4-.9-1 1.4-1.6 1.4-.4.1 0 1.8 0 1.7 0z"/><path d="m190 491 18.3-16.5s26 28 23.6 31c-8.6 10.8-19.8 12.5-20.9 13.1z" fill="#537225"/><path d="m208.9 473.7c-.3-.3-.9-.3-1.2-.1-17.9 16.7-19.2 16.4-18.3 17.7l.6-.3-.7.5c22.2 28.7 20.9 28.1 21.9 27.8 39.8-11.9 13-25.6-2.3-45.6zm22.4 31.4c-6.8 9.2-17.6 11.8-19.9 12.6l-20.3-26.5 17.1-15.5c5.9 5.7 25.2 29.2 23.1 29.4.3.1.1 0 0 0 .3.1.1.1 0 0z"/><path d="m215.8 507.7c-4.8 1.7-4.2 6.6 1.6 3.3 1.7-.4 3.6 0 3.3-2.5-.2-1.6-3-4.3-3.7-1.7z"/><path d="m224.1 505.3c-1.2-1.5-3.9-.8-2.5-3.7.5-1 3.5-3.5 5-2.6 1 .4.8 2.9 1 4 .7 2 .8 4.8-2.2 5.1-.3-.4-.4-1-.3-1.6z"/><path d="m220.7 499.3c-2 .2-1.8-.3-2.5-1.7-.4-.9-2.3-3.7-1-4.6 1.2-1 2.2 2.2 3.3 2.9 2.8.8 3.2 2 .2 3.4z"/><path d="m216 500.7c-1 2.8-1.7 2.1-.3 5-3.4 1-4.3-1.9-3-4.5 0-.8-1-2.1-.7-2.8.4-1 2-1 2.2.4z"/><path d="m209.5 509.7c-.3-.2-.4-1-.7-1.2-3.2-.5-.6-3.8-2.8-4.8-1.8-.8-3.8.3-4.2-2.8-.4-3.2 2.1-2.2 4.1-2.1.7-1.6-1.8-1.7-2.2-2.9-.3-1.3 1.6-7.4 2.9-3.7.4 4 4.2 2.2 3.4 5.4-.5 1.5-3.6 1.6-3 3.5.3 1 1 .5 1.6 1.2.4.5.7 1.5 1 2 .7 1 1.5 1.5 1.3 3.3-.3.7 1.3 3.9-1.4 2.1z"/><path d="m197.4 495.3c-4.3-.8-.3-15.2 1.4-1.6z"/><path d="m201.3 491.5c-2-.5-1.2-6 .4-6.8 1.2-.8 3.5 1.2 4 2.2.6 2.2-3.1 3-4.4 4.6z"/><path d="m201.1 496.3c-1 1-2-1.3-1-2.1 1-1 2-.3 1.8 1z"/><path d="m213.7 491.8c-2 .2-4.3 2.8-4.5-.3 0-2 1.8-2.8 2.5-4.5 1.5-6.7 8.7 5.3 2 4.8z"/><path d="m208.6 484c.9 3.8-5.7-.3-.3-6.1 1.2 1.7 1.5 4.5.3 6.1z"/><path d="m285.9 463.6 17.2-.7-17-13.8z" fill="#596c4c"/><path d="m286.1 449.1h-.9c-.1 14.3-.6 15.4.7 15.4 17.1-1 17.7-.2 17.9-1.3.3-1.2 0-.7-17.3-14.8-.5-.4-1.5 0-1.5.7h1.1l-.5.7 15.2 12.4-13.9.5v-13.6h-.8c-.5.7-.8 1.1 0 0z"/><path d="m290.2 507.8c-.3-3.5-4.8-19.6 7.2-17.3 4.6-.2 27.4-.2 27.4-.2 2.9 12.6 3.8 10.6.4 23.4l-30.6-1.6z" fill="#a1141c"/><path d="m290.2 507.8.9-.2c-.6-20.6-9-15.7 33.9-16.4v-.9l-.9.2c2.5 11.9 3.9 10.2.5 22.4l-29.5-1.6-4.2-4.2-.7.7c.9-.1 1.4-.2 0 0l-.6.6c4.8 4.7 4.5 4.8 5.1 4.8 31 .1 31.2 2.2 31.5.9 2.6-12 2.5-10.4 2.5-11.2-3.2-12.5-2.5-13.3-3.8-13.3-32.8 0-30.9 0-32 .2-7.4 1.2-3.9 17.3-3.4 18.6z"/><path d="m286.4 482.8s-3.9 7-.1 7.5c3.8.6 38.8-1.2 38.8-1.2s4.5-1.1-2.3-7.7c-7-6.7-36.4 1.4-36.4 1.4z" fill="#fff"/><path d="m286.4 482.8-.8-.4c-.7.8-3.9 8.6.5 8.9 2.9.2 37.7-.6 40.2-1.8 5.8-19-39.5-8.8-40.8-7.2l.9.5.3.9c9.1-2 39.6-10.1 38.3 4.6.2 1 .3 1.4.1 0-12 .5-26.4 1.2-38.7 1.2-2.3-.4.7-6.1.7-6.1l.1-.1-.8-.5c0 .1.6 1.9 0 0z"/><path d="m320.4 489.3-1.1-10c-3.4-4.3-.3 9.9-.6 10.2.1 1 1.7 1 1.7-.2z"/><path d="m314.8 489.6c-.4-.7-.5-11.5-2.2-11-1.8-.2.7 10.5.4 11.2.2 1 1.8 1 1.8-.2z"/><path d="m308.4 481.1c-.3-1-1.7-1-1.7.2.4.7.3 10 2 9.5 1.5 0 .3-2-.3-9.7z"/><path d="m302.6 481.7c0-1.1-1.9-1-1.7.2 1.1 7.4-.1 9.5 1.5 9.3.3-.1.2-2.4.2-9.5z"/><path d="m298.8 481.7c-1.5-5.1-3.7 8.1-4.2 8.5 1.6 3.4 1.6-.5 4.2-8.5z"/><path d="m292.6 482.7c.2-1.2-1.7-1.2-1.7-.3-.6 6.6-1.9 8.9-.3 8.9.5.1.6-1.3 2-8.6z"/><path d="m290.4 511.2c-.5 1 1.1 19.6 3.5 22.6.4 1.6 56.2 2.5 56.2 2.5-8-8.8-21.4-23.3-32.9-28.8-1.7-.2-16.6.7-18.1 1-1.5.2-8.7 2.7-8.7 2.7z" fill="#fff"/><path d="m350.5 535.4c-8.5-9.6-19.1-21.4-31.7-28.4-1.6-.9 0-.8-11.8-.3-2.4.1-8 .3-10.1 1.2-7 2.2-7.4 2.5-7.4 3.3-.2 1.5.1 17.7 4 23.3 2.7.6 45.6 3.5 55.2 2l.3.3.5-.5c1-.2 1.3-.5 1-.9zm-56.5-2.3c-2.8-6-3.4-18.1-3.3-21.2 4.5-1.8 8-2.5 8.4-2.7 0 0-.6-.1 17.7-.9 7.1 4.1 13.5 9.5 16.4 11.6l14.4 15.4c-26.1-.9-49.7-.9-53.6-2.2z"/><path d="m290.4 513.5s30.1-2.4 34.1-1.3 1.3-3.5 1.3-3.5-34.6-3.1-35.4-1.6c-1 1.5-.7 3.2 0 6.4z" fill="#a1141c"/><path d="m326.5 508.1c-1-1.1-32-3-36.1-2.2-2.2.3-2.1 7.8 0 8.4v.1c40.3-2.9 29.1-1.1 35-1.1 2.4.2 2.6-3.1 1.1-5.2zm-35.4 4.4c-.4-1.8-.7-3.5 0-4.7 13.1-.5 23.2 1.1 34.3 1.8.3.7.7 2.1.6 1.9-6.6-1.4-30.4.6-34.9 1z"/><path d="m294.3 459.6-9.3.5 1.2 23 30.5-.9z" fill="#537225"/><path d="m294.3 459.6-.1-.9c-8.1.8-10.4-.1-10.1 1.5 1.5 21.4.5 24.1 2.1 23.7 31-1 30.9-.3 31.2-1.3.7-.4-.3-1.9-23.2-23.9l.1.9-.6.6 20.9 21.3-27.6.7-1.1-21.3 8.5-.5-.1-.8c-.7.6-1 1 0 0z"/><path d="m290.1 491.3c5.6 0 5.6 9.2 0 9.2s-5.6-9.2 0-9.2z" fill="#fff"/><path d="m295.3 495.9c-.8-10.2-15.5-3.7-9 3.8 3.5 3.5 9 .8 9-3.8h-1.7c0 1.8-1.3 3.6-3.5 3.6-4.6 0-4.6-7.3 0-7.3 2 0 3.5 1.8 3.5 3.6 0 .1 1.8.1 1.7.1z"/><path d="m291.8 497.5c0 1.4-3.6 1.4-3.6 0 0-.6 3.6-1.3 3.6 0z" fill="#fff"/><path d="m293.7 533.7-1.1 6.3s17.1 3.5 28.6 3.5c11.4 0 30.7-2.4 33.1 0s1.7-9.4-.6-9.4c-11.7 1.1-48.9 2.3-60-.4z" fill="#fff"/><path d="m351.7 533.4c-3.5.3-31.2 1.6-33.4 1.6-3.5 0-6.2-.4-24.5-2-.4-.1-.7.2-.9.5h-.1v.1c.5 0-2.3 7-.4 7.2 22.2 6 42 1.1 61.3 3.2 4.5 4 4.1-13.3-2-10.6zm-58.2 6 .8-4.7c14.8 2.6 46.2 1.3 59.4.3 1.2 2.4 1.6 6.1.9 8-13.1-4.7-22 4-61.1-3.6z"/><path d="m320.4 512.6c-5.4 3.4-7 18.7-1.2 22.8h22.6s5.1 11.8 12.1 9.5 4.8-8 4.8-8c6.2 3.5 10.5-4 7.4-9.3-1.7-1.6 6.1 4.2 6.1-4.5-4.9-12.5-36.5-11.8-44.2-13.2z" fill="#a1141c"/><path d="m364.3 515.2c-10.6-4.3-35-6.1-36.5-6-.3.3-7.2 2.2-8 2.7 0 0 0 0-.1 0-6.9 6.8-6.7 18.4-1.1 24.1.3.3-1.3.2 22.7.2 1.2 2.4 6.6 11.9 13 9.4 4-1.1 6-4.4 5.7-7.4 5.9 1.8 9.5-4.7 7.7-9.5 7.9 1.6 7.9-10.8-3.4-13.5zm2.1 11.3c-.6-.4-2.2.4-1.3 1.5 2.5 2.2-.1 8.8-1.5 8.7-1.5 1.2-5.6-2.2-5.7.3v.2s0 0 0-.1c1.3 3-2.1 7.2-5.8 7.1-5.4-.2-9.3-8.9-9.5-9.3-.4-1.2.1-.4-22.9-.6-4.2-4.4-5.3-14.6 1.1-21.1l7.2-2.5 13.5 1.2c.1-.9.2-1.4 0 0 6.7.6 29.6 4.4 29.7 11.1 0 4.3-1.9 4.7-4.8 3.5z"/><path d="m317.4 489.3c6.3 0 6.3 10.7 0 10.7s-6.3-10.7 0-10.7z" fill="#fff"/><path d="m311.7 494.7c0 7.9 11.3 8 11.4 0 .1-7.9-11.3-8.1-11.4 0zm3 3.2c-5.3-6.8 6.5-11.3 6.7-3.2.1 4-4.5 6.1-6.7 3.2z"/><path d="m318.4 494.4c0 2.9-2.2 2.9-2.2 0s2.2-2.9 2.2 0z" fill="#fff"/><path d="m315.5 492.9c-1.5 4.3 3.7 7.1 3.9 1.6-.1-3.5-3-4.2-3.9-1.6zm1.8 2.8c-.4-.7-.2-1.9.1-2.3.1.2.2.5.2 1.1 0 .4-.1.9-.3 1.2z"/><path d="m281.5 378.9s27.1-2.6 34 10 8.3 67.8-.4 81-27.4-23.2-27.4-23.2l-8.7-26.4s-4.8-24.4-4.4-25c.2-.6 6.9-16.4 6.9-16.4z" fill="#596c4c"/><path d="m318.7 395.7c-1.3-16.1-25.4-19.5-37.5-16.9l-.5-.2c-5.5 12.9-6.9 16.2-7 16.3 12.6 91.9 62.4 114.9 45 .8zm-30.2 50.5-8.7-26.1h.1c-2-11.4-4.3-22.3-4.4-24.6 1.2-2.5 5.7-13.3 6.8-15.7 3.8-.2 26.3-1.7 32.7 9.6 9 19.5 11.5 130.1-26.5 56.8z"/><path d="m270.8 424.9c2.8 4 40.9 81.9 63.2 60 7.3-4.8 13.7-16.1-1.4-34.2-8.9-9.3-49.8-52.4-52.3-56.8z" fill="#fff"/><path d="m270.8 424.9-.8.3c3.7 4.1 39.3 82.5 64.4 60.4 26.7-26.6-18.8-46.7-54.2-92.7-.3.1-.5.3-.7.6.1.6-10 31-9.4 31.5.4-.2 1.2-.1 1.6.1l9.5-30.9-.9-.3-.7.5c2.6 4.7 43.2 47.2 52.3 56.7 13.1 13.7 11.9 34.4-8.5 36.4-22-4.5-41.1-45.6-51.8-63.2l-.8.6c.1 0 1.9.7 0 0z"/><path d="m317.3 472.7s-35.9-40.1-41.4-56.4c-5.5-16.4-1-10.1-1-10.1l5.2.4s35.9 51.4 46.1 56.4c10.4 5.1-8.9 9.7-8.9 9.7z"/><path d="m317.3 472.7.6-.6c-15.5-19.5-39.7-41.7-43.9-66.4l-.3-.2.3.3c.1-.1.2-.2.2-.2l-.3-.2c.3.4.4.5-.1-.1v.6c.1 0 .3 0 .3-.1l-.3-.4c0 .3 0 1 0 .3l-.2.3h.2v-.3l-.2.3c.3.2.6.6.8.8 0 .8 5.4.7 5.8.9l.1-.9-.7.5c1.1.9 33.5 49.8 48.5 58.1 2.7 3.3-10.7 6.4-11 6.7l.2.6c.6-.6.9-.9 0 0l.2.9c26-10.1 10 1.1-27.3-54.2-13.1-16.9-5.5-12.5-15.1-13.9l-.1.9.7-.5c-.8-1.5-3.5-2.5-3.4.3.7 19.1 41.9 65.7 45.3 67.7z"/><path d="m280.1 400.5c-.3-.8 52.7 68.5 53.1 59.3-15.5-12.8-40.6-46.9-51.9-60.1-.6-.7-2-.1-1.2.8z"/><path d="m272.6 421.8c16.9 27.9 36.7 61.2 38.3 55-3.4-2.2-31.6-47.3-36.9-55.9-.5-.8-2-.1-1.4.9z"/><path d="m298.9 475.7c-9.3 4.9 2.1 4.4 5.8 4.2 1.2-1.2-3.5-6.1-4.3-5.5z"/><path d="m296.9 473.3c0 .7.1 1.4.1 1.9-2.3-.3-2.2-2.9-1.6-4.4.9 0 1 1.5 1.5 2.5z"/><path d="m292.5 474.4c.9 1.6 1.2 6.3-1.6 4-3.4-3.5-.2-8.5 1.6-4z"/><path d="m293.5 469.4c-3.5 1.4-2.9-2.5-3.9-4.5-.6-.9-1.6-1.5-1.9-2.5 2.1-.3 2.1 1.4 3.5 2.5 2 1.3 3.8 1.5 2.3 4.5z"/><path d="m334.8 453.8-30.7 22.1c16.4 25.9 52.2 7.3 30.7-22.1zm-18.2-19.7c-7.4 5-22.8 16.5-28.2 20.6 3.3 4.8 5.6 8 8.5 11.9l30.5-21.5c-3.2-3.4-6.9-7.1-10.8-11z" fill="#f6a800"/><path d="m334.9 453.9s-.4-.4-.6-.6l.5.5-.5-.7c-30.8 22.3-31.9 22.4-30.9 23.4 20.2 30 54.5 1 31.5-22.6zm-29.6 22.1 29.3-21.1c19.3 26.4-12.6 45.6-29.3 21.1z"/><path d="m328.3 445.2c0-.6.8.3-11.1-11.7-.3-.3-.8-.3-1.1-.1-7.4 5.2-22.8 16.5-28.2 20.6-.3.3-.4.8-.2 1.2 3.3 4.8 5.6 8 8.5 11.9.3.3.8.4 1.2.2 31.9-22.5 30.9-21.4 30.9-22.1zm-11.9-10.9-.4.4s.2-.2.4-.4zm-26.8 20.6c5.8-4.3 19.6-14.6 26.9-19.6 3.4 3.4 6.7 6.7 9.6 9.7l-29 20.4c-2.6-3.4-4.9-6.6-7.5-10.5z"/><path d="m320 483.2c-8.7 2.7-9-21.2.5-1.6z"/><path d="m326.9 481.3c-2.9-.4-3.4-2.6-4.8-4.8-.9-1.5-6-4.8-3.7-6.1s4.6 2.1 5.5 3.5c1.2 1.8 4.2 4 4.1 6.3z"/><path d="m332.2 477.4c-2.3-.5-2-3-3.2-4.6-11.2-10.3 7.3-4.8 5 3z"/><path d="m336.2 471.2c-1.2-1-5.3-7.8-4.1-8.8 2.9-2.5 5.8 4.8 6.3 6.7.6 2-2.2 2.1-2.2 2.1z"/><path d="m299.5 459.6c-.2.7-1 1.5-1.7 1-1.3-.6.3-2.2-1-4.5-5-6.1 5.4-6.6 2.7 3.5z"/><path d="m305.2 457.3c-7.7-6.4-1.3-13.2 1-1.2z"/><path d="m313.3 450.6c-10.7-7.4.3-11.9 1.6-1z"/><path d="m318.6 445.8c-1.7-1.2-7.5-5.4-1.7-5.1 4.7.3 10.4 6.9 1.7 5.1z"/><path d="m358.6 536.8s-12-11.9-30.6-22.1z" fill="#a1141c"/><path d="m359.2 536.2s-12.7-11.1-30.9-22.1c-1-.6-2 .9-.9 1.6 9.4 5.3 22.6 14.3 30.4 21.7 1.2 1.1 2.2-.4 1.4-1.2z"/><path d="m366.1 527.6s-26-12.9-33.7-14z" fill="#a1141c"/><path d="m366.4 526.8c3.2 1.7-37.9-19.2-34.2-12.4 2.5-1.5 38.9 18.4 34.2 12.4z"/><path d="m321.5 505.3c-8.6 9.8 14.1 12.5 15.4 7 0-1.6 1.9-.1 3.1-1.3 1.3-1.3.3-6.2-3.7-6.2s-14.8.5-14.8.5z" fill="#a1141c"/><path d="m321.5 505.3-.6-.6c-9.6 11.2 16 14.9 16.9 7.6-.1 0-.1 0 0 0l-.3-.2.3.3.1-.1-.3-.2c.1.1.5.5 0 0l.2.3.1-.1-.3-.3c0 .1.2.3.2.3 4.3.9 5.2-5.8 1-8-1.6-.8-7.4-.4-17.8.3l.5.7.1.9c1 .9 20.6-4.2 17.8 4.2-1.3.8-3.5-.2-3.5 2 .3 0 .3 0 0-.1v.1c.3 0 .3 0 0-.1-3.9 4.9-21 .7-13.9-6.3l-.5-.7c.1.9.2 1.4 0 0z"/><path d="m326.1 494.9c-13.7 27.9 22.8 7.7 10.4-1-1.4.1-8.8-2.3-10.4 1z" fill="#a1141c"/><path d="m336.4 493.1c-1.5 0-9.3-2.5-11.2 1.5l.1-.1c-1.8 4-3.9 7.7-3.2 12 1.3 4 9 6 15.2-2.9 3.2-4.1 3.9-9.8-.9-10.5zm-4.9 13.8c-11.2 4.9-8-6.5-4.7-11.6.1-.1.2-1.3 3.3-1.4 13-.3 8.2 7.6 1.4 13z"/><path d="m327.2 508.8c1.9 5.1 3.1-8.4 3.5-8.7-1.9-3.3-1.8.3-3.5 8.7z"/><path d="m133.2 351.3s-18.7 61.3-33.1 85.4-18 43.9-12.6 52.7 23 15.3 32.2 11.5c22.3-17.2 6.8-46 17.4-74.6 4.7-12.8 12.8-39.6 12.8-39.6z" fill="#fff"/><path d="m133.2 351.3-.9-.3c-7 21.9-21.2 65.2-33.1 85.1-10.3 17.2-15 32.3-15 42.9-2.3 17.7 30.3 33.1 42 17.4 13.2-20.3 3.2-47.6 11.7-69.8 4.9-12.8 12.9-39.7 12.9-39.7-17-35.7-16.4-38.4-18.4-35.9l.8.3-.8.3 16.7 35.4.8-.3-.9-.3c-2.9 9.3-9.5 30.6-12.8 39.6-10.6 28.8 7.4 91.1-37.3 71.6-24.1-10.5-10.9-37.7 2-60.5 13.9-24.6 33.1-85.4 33.2-85.6l-.9-.2c-.7.4-1.3.6 0 0z"/><path d="m133.4 388.1c-4.1 8.4-26.8 71.2-29.4 84.1l8.4 2.9s17.6-64.7 23.5-75.3-2.5-11.7-2.5-11.7z"/><path d="m133.7 387.2c-.4-.1-.8.2-1 .5.7.3 1.2.6-.1 0-34.7 95.5-17 40.8-28.9 85.2 10.4 3 8.7 4.8 10.3-.5 2.6-8.7 13.2-48.3 20.4-67.1 4.2-8.6 7.7-16.2-.7-18.1zm1.4 12.1c-5.9 10.4-21.3 67.2-23.3 74.7l-6.7-2.2c6.6-23.5 14.6-47.1 29-82.7 4.5 1.5 3 6.7 1 10.2z"/><path d="m138.5 408.5c-.1.1-8.4 11.9-13.2 46.1-4.7 34-4.8 34-4.8 34-.3 1.1 1.7 1.3 1.7.2 3.8-22.4 5.4-59.4 17.6-79.3.7-1.1-.8-1.9-1.3-1z"/><path d="m96.7 468.6c34.4-85.4 36.7-90.2 36.7-91.5-.1-1.6-1.9-1-1.9.4-3.5 11.2-28.5 71.3-36.4 90.5-.5 1.2 1.3 1.6 1.6.6z"/><path d="m87.5 489.4c5.3 8.8 23 15.3 32.2 11.5 8.3-3.5 12-18.2 12.5-24.5l-44-14.5c-3.9 12.4-4 22.1-.7 27.5z" fill="#f6a800"/><path d="m132.5 475.6c-47.2-15.6-44.1-14.8-44.6-14.4-1 .5-6.8 19.1-1.1 28.8 17.5 21.1 46.5 16.1 45.7-14.4zm-13.2 24.5c-8.8 3.6-26.1-2.7-31.1-11.2h.1c-4.2-6.6-1.7-18.3.6-26l42.4 14c-.8 7.8-5 20.4-12 23.2z"/><path d="m99.3 438.1c-2.8 4.8-5.1 9.3-7.1 13.7 8.3 2.3 25.9 7.4 40.1 13.6.1-4 .3-8.8.6-13.9-6.5-3.2-22.2-10.5-33.6-13.4z" fill="#f6a800"/><path d="m99.3 438.1-.8-.4c-.3 1.2-8.8 14.1-6.6 14.9 35.8 9.7 41.3 15.7 41.3 12.7.1-13.3 1.2-14.2.1-14.7-6.5-2.9-23.6-12.3-34.8-13l.8.5-.2.9c11.2 2.8 27 10.1 33.5 13.2l.3-.8-.9-.1c-.3 5-.5 10-.6 13.9h.9l.3-.8c-14.4-6.1-31.9-11.3-40.2-13.6l-.3.9.8.3c1.9-4.3 4.2-8.8 7-13.6l-.6-.3c-.2.9-.2 1.4 0 0z"/><path d="m122.8 480.2c-.9-4.5-6.1-3.5-6.7.3-.4 2.6.6 5.5.3 8-.8 2.2-2.2 8.4 1.7 4.4 3.1-3.2 1.8-8.9 4.7-12.7z"/><path d="m113.2 477.2c.7 3.2 1.6 14.9-3.5 15-4.1 0 .1-8.7.6-12.2.2-1.3-.4-3 .9-3.7z"/><path d="m101.8 474.6c-.3 3 .4 5.8 1.1 8.7 0 1.6-.8 2.9-1 4.5-.2 2-.1 3.7-2.3 1.3-2.4-2.5-1.1-6.2-1.1-9.3 0-1.5-.4-9.3 2-8.5 1.2.3 1.1 2.4 1.3 3.3z"/><path d="m95.6 472.6c-.1 4.2-1 8.3-1 12.3-1.1 2-2.9.2-3.5-1.1-.9-2.8.7-5.8.9-8.5-1.1-3.8 1.3-8.9 3.6-2.7z"/><path d="m105.5 444.1c-3-5.4-6.2 9.9-6.1 9.9.8.3 1.6.5 2.5.8-.9-4.2 4.3-8.6 3.6-10.7zm23.3 10.4c-.2-4.6-3.6-3.3-3.3 2.7.1 1.7-.1 3.5-.1 5.4 1 .4 2.1.9 3.2 1.2.8-3.1.4-6.1.2-9.3zm-5.9-3.7c-3.7 0-2.8 7.1-3.1 9.7 1 .3 2.1.8 3.1 1.1-.6-5.2 3.2-7.3 0-10.8zm-14.3-6c-3.7 1-2.5 7.7-3.5 10.8.8.3 1.6.5 2.5.8-1.4-4.1 4.3-9.8 1-11.6z"/><path d="m141 312.7c-15.9 44.1-19.4 136.1 41.8 151.8 55.4 34.8 103.7-37.1 103.6-85.2 0 0-3.3-1-14.3 0s-21.8 4.2-21.8 4.2l-3.6-36.8c3.5 13.2 36.4 21.4 43.3 22.1l7.8-29.2s-7.4-1.9-18.9-8.2-14.9-13.2-25.7-18.2-31-15.1-31-15.1z" fill="#596c4c"/><path d="m298.1 338.9c-28.5-9.3-29.9-19.7-44.4-26.3-4.2-1.9-26.8-13.1-30.9-15.1-.5-.3 3.6-.8-81.6 14.6-.3.1-.6.2-.7.5l-.3-.1c-8.2 22.5-13.5 59.8-7.1 92.3-.1 0-.1 0 0 0 5.6 28.5 20.1 53.2 49.5 60.7 38.7 17.9 60.2 10.3 87.2-30.3-.7-.5-1.1-.9 0 0 4.2-3.5 21.4-43.5 16.9-56.7-8-2.2-30.5 2.6-35.6 3.8l-3.1-31.2c8.6 11.6 37.4 18.4 41.9 18.5.4.1.9-.2 1-.6 6.6-28.6 9-29.3 7.2-30.1zm-8.9 28.7c-18.1-4.2-32.9-6.7-41.6-20.8v-.1c-.1-.1-.1-.2-.2-.3-.7-1-1.1-.6-1.3.7h-.1c0 .1 0 .1.1.2-.8 7 3.9 36.7 3.2 36.2.2 1 .8.8 1.6.6 13.5-3.3 30.2-5.2 34.4-4.2-2 52.8-49.3 116.5-102.3 84-28.8-9.5-44.7-31.1-49.1-59.2-4.9-22.4-.9-72.5 7.3-91.3 0 .2.1.3 0 0v.2l80.7-14.7c34.5 17.7 31.7 13.8 43.2 23.5 3.5 4.6 26.2 17.3 31.4 17.7z"/><path d="m286.4 379.3s-2.7-.9-11.2-.3c-1.8 15.5-11.5 67.4-62.6 94.4 43.3 4.5 75.3-63.7 73.8-94.1z" fill="#a1141c"/><path d="m286.6 378.7c-.2.6-.4 1.2 0 0-.3-.1-2.5-1-11.6-.3-.4 0-.8.3-.8.8-3.2 31.4-23.6 75.3-62.2 93.7-2.1 2.9 5.9 1.7 7.4 2.1 18.3 4.9 49-35.9 50.4-39.5 4.1-3.6 21.3-43.8 16.8-56.8zm-71.3 94.2c35.7-19.9 56.3-56.5 60.6-92.9 2.4-.1 7.8-.3 9.6.2 1.3 33.2-34 95.5-70.2 92.7z"/><path d="m166.2 415.7s-13.8 23.9-15.7 26.2c-2 2.4.4 6.6 4.3 3.3 4-3.4-2.3 4.2 2.3 5.8s5.3-1.6 5.3-1.6c-1.2 5.8 1.6 10.3 6.2 4.1 5.5 25.9 17.3-25.6 18-25.3z" fill="#a1141c"/><path d="m187.3 427.2c-20.1-11.8-21.4-13.2-21.8-11.9l-.1-.1c-16.8 28.5-16.4 27-16.4 28.7 0 3.5 3.8 4.3 6 2.3-1.8 4.1 2.4 7.2 6.7 5.5-.3 4.2 2.5 7.6 6.9 3.5 6.3 23.2 19.8-28.4 18.7-28zm-12.7 31.2c-2.5 4.6-5.1-2.6-4.9-4.8l-.2-.1c0-.9-1.4-1.1-1.6-.3-3.8 5.2-5.7 1.6-4.4-3.8h-.2c-.2-.7-1.1-.9-1.5-.3 0 .1-.1.3-.1.3-.2.2-.1 1.3-2.1 1.3-6.5 0-.9-5.5-2.9-6.9-1-.3-1.3.3-2.2 1-3.1 2.5-4.4-.3-3.1-2.1 4-5.5 5.6-8.9 15.5-25.7l18.8 11.4c-2.2 6.8-7.7 24.9-11.1 30z"/><path d="m225.6 422.6s13.7 22.2 15.6 28.3c2 6.4 3.5-.5 4.8-6.1 0 0 3.9 8.5 5.9 2.4 1.9-6 1-9.5 1-9.5s3.7 6.1 4.8 1.7c1.1-4.3 0-6.2 0-6.2s7.9 2.4 5.6-1c-2.4-3.5-25.1-27.9-25.1-27.9z" fill="#a1141c"/><path d="m261.9 429.7c-5.3-6.2-18.5-20.7-23.4-25.7-.3-.3-1-.3-1.4.1-12.3 18.4-13.2 18.3-12.5 19.3l.3-.2c2.8 4.6 14 23.2 15.3 28.1 1.3 4.8 4.4 3.1 5.1-.8-1-.2-1.4-.3 0 0l.8-3.1c4.3 7.2 7.5-.1 7.5-6.7 3.6 3.6 5.8-1.3 5-5.9 4.2.9 8.4-.1 3.3-5.1zm-4.8 3.6c.1.1.1.2.2.3l-.2.6c.1 0 .2.1.3.1.3 1.8 0 4.3-.8 5.4-1.9-.8-3.4-5.6-4.2-2.2.3-.2.2-.1 0 0v.2c-.3.1-.6.3-.8.4.3.6.7 1 1 1.5 0 1.5-.2 3.8-1.3 6.9-.5 1.5-.8 1.5-.9 1.6-1.6-.4-2.8-2.8-3.3-4.1-1-1.2-1.5-.5-1.9 1l-.4.2c.1.2.2.4.3.5-.4 2-.8 4.7-1.8 6.1-.2.2.1.4 0 .7-.5-3.2-15.4-29.1-16.5-30.4l11.4-16.6c9.3 10.3 23.2 25.2 24.5 27.2-1.8.4-6.3-1.9-5.6.6z"/><path d="m175.2 347.5c-16.5-5-21.7-10-21.7-10 5.2 16.1-6.8 28.3-19.6 33.1 18.6 10.7 15.1 27.4 8.2 42.1 22.4 4 39.8 13.2 51.2 34 8-16.7 29.4-23 45.6-21.5-.8-13.2 8.6-34.6 18.7-43.2-7.7-13.2-10.3-29.9-9.3-43.9-15.9 13.4-31.7 14.5-50.4 11 .1.1-6.3 3.4-22.7-1.6z" fill="#fff"/><path d="m258.1 380.9c-5.8-9.7-10.1-26.6-9.1-38.8 1.4-16.2-9.5 15.8-51.7 6.1-5.1 1.9-13.2.9-22-1.8-13.2-4.1-21.3-9-21.3-9.5-.8-.6-1.8.1-1.3 1.2 4.4 13.5-4.7 25.8-19 31.5-.6.2-1 1-.2 1.6 19 10.6 13.6 28.6 8 41 24.2 7.8 38.5 12.5 51.9 35.3 11-16.5 23.1-21.5 42.6-21.5 2.7 0 3.8.3 3.8-1-1-10.1 7-32.7 18-42.1.7-.6.8-1.4.3-2zm-14.7 20.1c-4.3 9.5-5.1 20.3-5.3 23.5-13.8-1.2-36.3 4-44.7 20.7-10-18.3-27.1-29.1-50.1-33.1 6.7-14.4 9.4-31-7.6-41.4 10.5-3.7 23.3-16.6 19.1-31 2.8 1.9 9.4 5.3 20.2 8.6.2.1.1 0 .4.1 6.2 1.9 17.4 4.2 22.7 1.8 17.2 3.1 33.7 2.8 49.4-10.3-.3 17.4.8 26.2 9.1 42.1-1.8 1.8-8.8 9.4-13.2 19z"/><path d="m213.5 345.7s17.3-32.5 16.3-36 7.5 4.4 5.7 9.5c-1.7 5-15.7 29.9-17.2 30.5-1.6.6-4.8-4-4.8-4z" fill="#a1141c"/><path d="m213.5 345.7.8.4c.5-1.3 18.3-33.6 16.3-36.9h-.3l.3.1v-.1h-.3c.3.1.5.2-.3-.1l.3.4c.2-.1.2-.3.3-.3l-.5-.2c.1.2.7.9 0 0v.6c.1 0 .2 0 .3-.1l-.3-.4c0 .3 0 1 0 .3l-.1.3h.1v-.3l-.1.3c.7 0 5.8 5.2 4.8 9.2-1.3 4.9-15.7 29.5-16.8 30.1l.3.3-.2-.3c-.1 0-.1.1-.1.1l.3.3-.2-.3c-1.2-.3-3-2.9-3.7-3.6l-.9.2c.2.1 1.7.9 0 0l-.7.5c4.5 4.8 4.4 8 10.7-2.7 2.5-4.3 11.1-19.5 12.8-24.1 1.9-5.1-7.1-15.7-7.4-9.5-.3 6.1-14.8 30.7-16.1 36.3z"/><path d="m242.9 353c.2-12.9-3.5 3.7-25.2 2.4-3.5 0-10.6-.3-13.9-1-.9 0-9.3 4.2-24.1-.2-13.9-4.2-17.3-7.1-17.4-7.2-1.2-.5-1.4.1-1.4 1.1v1.3c.3 9.9-7.2 17.4-16.3 21.1-.3 1 1.1.9 4.3 5.7 1.9 2.8 3.9 6.7 4.2 10.8 1.1 16.5-2.2 20.8-.2 21.2 27.1 5.6 38.5 23.7 40.4 25.6 1.8 1.9.7.6 6.7-4.4 9-7.5 20.2-10 31.8-11.1.1 0 1.2.2 1.2-.9-.1-14.4 7.3-29.4 18.2-37.2-6.3-12.1-7.5-15.2-8.3-27.2zm-11.6 63.9c-7.5.1-29.7 5.8-36.9 15.5-6.7-10.9-28.5-23.8-40.3-25.7 1.1-7.3 2.9-27.3-7-35.7 10.3-4.5 15.3-12.7 15.3-21.7 2.1 1.3 7.3 3.8 16.8 6.7 0 0-.1 0 .4.1 12.8 3.8 22.1.8 23.9.2 8.5 1.9 28.7 2 37.5-5.5.8 14.7 2.7 18.7 8.2 29.7-12.4 6.8-17.8 27.4-17.9 36.4z"/><path d="m213.8 345.7s5.2-1.9 6.2 1.1 1.4 24.7 0 26.8c-1.4 2.2-6.7 4.6-9.3-4.2-2.6-8.7 3.1-23.7 3.1-23.7z" fill="#a1141c"/><path d="m220.9 346.6c-1.4-4.1-7.9-1.9-8-1.2h.1c-.6.8-7.7 23.4-.3 29.6 2.1 2.6 7.4 1.7 8.5-1.6 1.1-3.1.9-23.2-.3-26.8zm-1.5 26.4c-3 3.9-7 0-7.7-3.9-2.3-7.8 1.7-18.9 2.8-22.8 1.3-.3 4.2-.8 4.7.8 1 1.1 1.3 23.9.2 25.9z"/><path d="m206.3 345.4s5.6-1.8 7.6.2 1 24.3-.3 28.2-7.9 5.5-12.9-3 5.6-25.4 5.6-25.4z" fill="#a1141c"/><path d="m206.3 345.4.3.9c1.5-.5 5.8-1.2 6.7 0 1.5 0 1 22.9-.4 27.3-2.5 5.5-9.3 1-11.2-3.1-4.8-8 5.5-24.2 5.5-24.4.1-.1.1-.1.1-.1l-1-.6c0 .1.6 1.9 0 0l-.7-.4c-3.9 5.5-14.8 29.8 3.4 32.9 9.7-.1 6.2-20.6 6.7-28.8.4-6.4-6.9-5.6-10-4z"/><path d="m198.6 343.3s5.6-1.1 7.5 2.2c1.9 3.4-.3 25.1-.3 25.1s-.1 5.6-4 5.6c-6.3 0-8.5-12.2-8.5-12.2z" fill="#a1141c"/><path d="m198.6 343.3.2.9c.1 0 6.1-1 6.9 2.6 1.1 4.5-.1 17.6-.4 21.9.3 4.6-2.6 9.3-6.7 5-3.2-3.4-4.2-9.8-4.2-9.9l-.9.2.9.2 5.2-20.8-1-.1c.2.9.3 1.4 0 0l-.9-.2-5.2 20.8c2.4 16.5 14.2 16.1 14.2 6.7-1 0-1.4-.1 0 .1 0-.4 2.3-21.4.3-25.6-1.3-2.7-7.3-3.9-9.2-2.1z"/><path d="m201.5 386.6c-17.4 13.1-30.3-18-4.2-15.4.9.3 1.6-.8 1-1.6-7.4-7.1-7.2-7-8-7l-.1 1-.1-.9c-20.9.9-25.2 35.6 2.8 36.3 8.3.2 17.3-4.6 18.5-12.6-1-7.3-7.3-4.4-9.9.2zm-11.6-22.6-.3.3c0-.1.2-.2.3-.3zm12.3 31.2c-23.8 13-41.3-25.5-12.2-30.5l5 4.7c-24.5-1.1-14.8 32.2 7 19 2.2-1.9 3.3-6.1 6.3-4.3 4 3.7-2.6 9.2-6.1 11.1z"/><path d="m189 348.6s-2.1 21.1-1 23.8 7.6 3.3 8.5 1c.9-2.2 2-30.3 2-30.3l-11.1-13.2-6.7 1.3c.1 0-1.6 11.4 8.3 17.4z" fill="#a1141c"/><path d="m199.3 342.7-11.2-13.2c-.4-.7-1-.1-7.5 1-3 6.2 1.7 14.9 7.6 18.7-.3 3.5-2.1 19.4-.8 23.6 1.5 3.3 9.5 4.6 10.2.3.6-3.6 2.1-29.4 1.7-30.4zm-3.3 29.5c.6 2.3-4.8 2.7-7.1 0-1.3-5.6 1.7-23 .6-24.3v-.1c-8.3-5-8-13.7-7.9-16l5.5-1.1 10.6 12.7c-.2 3.2-.9 23.1-1.7 28.8z"/><path d="m112.5 368.4c-4.1 5.7-28.6 48.5-45.6 56.2-3.4 1-2.4-2.3 2.4-8.4 4.9-6.1 31.1-44.8 34.5-57.8s8.7 10 8.7 10z" fill="#537225"/><path d="m113.3 368.3c.1-.5-6.1-24.7-10.3-10.1-5.2 18.1-31.6 50.6-39 65.8 8.1 11.7 49.9-55.4 49.3-55.7zm-33.2 44.8c-12 11.9-13.8 11-14.3 11 .5-3 3.8-6.1 11.2-17 30.2-44.5 26.6-47.8 28.9-51.1 2.8-1.9 5 10.1 5.8 12.1-.2-.3-20.4 33.9-31.6 45z"/><path d="m102.3 360.1s-24.3 31.3-43.2 43.2c-12.7 8-25.8 16.3-4.8-6.3 20.9-22.6 37.8-46.8 38.3-49.7.5-2.8 9.7 12.8 9.7 12.8z" fill="#537225"/><path d="m103 359.7c-4.8-6.6-7-14-11-13.2-.4 2.6-17.7 27.2-38.6 49.9-10.1 11-14.8 16.4-8.6 15.8 20.4-6.6 58.2-48.8 58.2-52.5zm-58.5 51c-.2 0-.3.1-.3.1 9.4-12.7 45.5-52 49-62.3 1.6 1.5 6.5 9.4 8 11.8-34.5 43.1-55.3 49.5-56.7 50.4z"/><path d="m226.2 287c10.7-8 26 2.9 31.8 9.6 0 0-11.4 9.2-29.9-5-4.1-3.2-1.9-4.6-1.9-4.6z" fill="#fff"/><path d="m245.5 285.8c-4.8-4.4-18.3-1.6-19.6.5.2.5-.4-.7.1.3-.1-.1-.1-.3-.2-.4-5.4 6.2 17.4 14.7 19.6 14.1 1 .2 2.1.1 3.1.1.2.3.4.3.8 0 1.3-.1 2.5-.3 3.5-.5.2.1.4.1.6-.2 3.3-.9 5.1-2.4 5.2-2.4 1-1.9-3-4.9-13.1-11.5zm11.2 10.6c-.6.4-1.6.9-3 1.3-1-5.8-1.9-4.6-.3-4.4 1.2.9 2.2 2 3.3 3.1zm-6.4-4.1c.6.8 1.1 3.9 1.7 5.9-.6.2-1.3.3-2.1.4-.1-3.2-.3-5.3-.7-6.6.4.1.8.2 1.1.3zm-23.7-4.8c.1.2.1.1-.2-.3 0 .1 0 0-.1-.1zm2.2 3.3c-1.2-1-2.5-2.1-2-3.1 6.1-4.2 14.4-3.4 22.9 2.6-1.4-1-19.8-5-15.2-.9 2.3-.4 6.4.3 9.6 1.1 1 2.4.8 6 .9 8.1-4.5-.5-10-2.6-16.2-7.8zm18 7.9c.1-3.6-.2-6.1-.7-7.7.4.1.7.2 1 .3.9 1.9.9 5.3 1.1 7.4-.5 0-.9 0-1.4 0z"/><path d="m229.2 307.4c.5 5.5 10.9 12.9 16.9 10.1 7-22.2-41.3-40.6-16.9-10.1z" fill="#fff"/><path d="m246.7 316.9c8.6-21.4-43.3-41.7-18.3-9 .5 1.9 1.7 3.8 3.3 5.5 0 .2.2.7.5.5.7.7 1.4 1.3 2.2 1.9.1.6.3.7.7.5 2.9 1.9 7.5 3.8 10.3 1.9.9.6 2-.2 1.3-1.3zm-17.8-9.5c.5-.2.6-.4.3-.1zm.9-.6c-.7-.9-9.3-12.1-6.3-14 2.1-1.4 22.1 2.5 21.9 21.2-.6-1.1-1.4-3-2.3-4.3-.3-.6-.7-1.1-1.1-1.7 0-.4-.2-.7-.6-.9-.3-.5-.6-.9-1-1.4 0-.4-.3-.8-.7-.9-.6-.9-6.2-7.9-5.2-3.3 1.4 1.2 2.7 2.7 3.8 4.2-2.9 3.2-4.8 5-5.8 6.2-1.5-1.5-2.6-3.3-2.8-5.2zm6.9 8c1-1.2 2.5-3.1 4.5-5.4.3.4.5.8.7 1.2-1 1-2.4 2.7-4.3 4.7-.4-.1-.6-.3-.9-.5zm2.9-7.8.6.9-5 6c-.5-.4-1-.7-1.5-1.1 1.2-1.1 3-2.9 5.9-5.8zm-.5 9.1c.8-.9 1.9-2.2 3.6-4 1.2 2.1 1.9 3.9 2.3 4.9-1.4.4-3.6 0-5.9-.9z"/><path d="m215 318c-.3 5.3 6.1 17.4 12.6 19 0 0 5.4-19.4 0-27.7-5.4-8.2-12.6 8.7-12.6 8.7z" fill="#fff"/><path d="m228.4 308.8c-5.1-8.8-13.6 6.4-14.3 9.3-.3 1.8.7 5 2.4 8.3 0 .3.1.5.4.7.4.7.8 1.4 1.2 2.1 1.6 3 6.4 9 9.4 8.4.3.4.6.3.9-.4 0 0 .1 0 .1-.1s5.7-19.9-.1-28.3zm-12.8 9.5.1.1c9.4-21.1 15.4-4.6 12.7 9.7-.1-3-.4-10.8-3.3-11.4-1.2 1.4 1.1 3.5 1 5.6-3 1.4-6.4 2.9-8.7 3.2-.8-2.5-1.6-5.8-1.8-7.2-.9-.4-.8-.4 0 0zm11.4 17.6c-.9-.4-2.3-1.1-3.9-2.5 1.7-.3 3-1 3.9-1.5zm-6.8-5.6c1.8-.3 4.8-1.2 6.7-2 0 .6.1 1.1.1 1.6-1.2.7-3.1 1.9-5.4 1.9-.5-.4-.9-1-1.4-1.5zm6.6-4c-1.9 1.1-4.8 1.9-7.6 2.3-.3-.5-.5-1-.8-1.5 2-.5 6-1.8 8.2-3 0 .7.1 1.5.2 2.2z"/><path d="m202.9 321.1c-.8 2.9-3.6 21.3 5.7 22.1 0 0 10.1-7.6 4.9-24.4s-10.6 2.3-10.6 2.3z" fill="#fff"/><path d="m202 321c-.4-.1-2.1 12.7-.2 16.9-.2.4-.1.8.4 1.1 1.1 2.7 3.1 4.7 6.2 5 14.4-5.4 3.7-53.2-6.4-23zm1.1.2h.1c.5.2.9.3-.1 0zm5.9 16.9c-1.6.2-3.7.4-5.2-.3-.2-.6-.4-1.1-.5-1.8 1.9.8 4.5 1 6 .9-.1.4-.2.8-.3 1.2zm.6-3c-2.2.2-5 .1-6.7-1.3-.1-.6-.1-1.1-.1-1.7 2.2 1.1 4.8 1.4 7.1 1-.1.7-.2 1.4-.3 2zm-4.8 4.7c1.4.2 2.8.1 3.7 0-.2.8-.5 1.6-.8 2.2-1.2-.4-2.1-1.1-2.9-2.2zm5.2 1.3c.6-1.9 1.3-4.8 1.8-8.5.2-.2.3-.4.1-.6.2-1.1.9-8.4-1.5-5 .1-.1.1 1.9-.2 4.5-1.5.2-5.3.5-7.3-1.4.1-4 .8-7.7 1-8.8 6.6-23.5 15.2 10 6.1 19.8z"/><path d="m200.5 321.3c.1 4.6-4.7 20.5-11.9 21.6-14.2-18.2 6.4-46.6 11.9-21.6z" fill="#fff"/><path d="m195.1 331.2c-2.3-.4-6-1.5-8.7-2.6-2.4-1-2.6-2.2-3.5-1.4-2.3 3.2 18.4 8.2 12.2 4z"/><path d="m194.1 334.3c-2.3 0-7.9-1.2-9.4-3.2-.3-.3-.9-.4-1.2-.2-3.5 2.4 15 7.8 10.6 3.4z"/><path d="m201.2 321.2h.2c-5.8-26.4-28.5 2.6-13.5 22.3h.6c.2.1.4.1.7.2 0 0 .2-.1.4-.3 7.5-1.5 11.2-15 11.9-22.2-.2-.1-.2-.1-.3 0zm-12.4 20.3c-.8-1.2-1.4-2.3-2-3.5 1.2.8 2.5 1.3 3.5 1.5-.6.8-1.1 1.5-1.5 2zm4.8-3.5c1.8-3 3.4-7.2 3.7-12.3 0-1.2-1.7-1.2-1.6-.2.1 5.5-2.2 9.6-4.3 12.6-2.7-.3-4.9-2.8-5.8-3.5-4.7-16.7 10.4-33 14-13.4 0 4.5-2.6 12.2-6 16.8zm6.7-16.7h.4c-.2 0-.3 0-.4 0z"/><path d="m191.6 320c-3.2 5.5-9.1 19.7-18.4 20.9-14.1-27 31.5-39.7 18.4-20.9z" fill="#fff"/><path d="m172.3 341.3c8.1 3 17.4-15.7 20-20.8 13.5-21.2-34.7-6.9-20 20.8zm18.6-21.7c-6.1 8.9-6.4 15.7-15.2 19.4 3.2-4.5 9.3-13.7 7-16.2-1.4-.3-.5 1.2-2.9 6.2-1.9 4.1-5 7.9-6.5 10.3-1.4-3.8-3-14.1.5-18 7-9.7 25.7-14.4 17.1-1.7z"/><path d="m173.9 324.4c-1.4-.4-1.8-2.1-2.9-1.2-2 2 8.9 5.3 10 5.7 3.5-1.5-2.2-1.8-7.1-4.5z"/><path d="m179.9 330.4c-.1 0-5.1-1.6-6.8-2.7-1.6-.9-2.1-1.8-2.9-1-2.4 2 13.9 7.9 9.7 3.7z"/><path d="m172.7 331.8c-.6-.3-1-.8-1.2-1.3-.2-.4-.7-.6-1.1-.4-1.4.5.3 2.5 1.6 3.2 3.5 1.5 6.1 2.4 6.9.9-.3-1.7-2.7-.4-6.2-2.4z"/><path d="m177.6 309.8c-2.5 14.6-11.5 23-24.9 21.4-1.4-22 32.4-32.4 24.9-21.4z" fill="#fff"/><path d="m157.4 315.2c-.2 0-.3 0-.6.2s-.3.5-.3.8c-3.1 4-5.1 8.9-4.9 14.4-.3.6.1 1.6.9 1.3 2.6 1.1 10.1.7 17.7-4.8 4.8-3.4 7.4-14.9 8-17 6-9.6-11.3-6.1-20.8 5.1zm5.4 6.8c.9.4 1.5.8 2 1.1-.5.4-1 .8-1.6 1.2-.8-.5-2.1-1.2-3.4-2-1-.9-3-2.2-3-3.7.2-.3.4-.7.6-1 1.5 1.7 4.3 3.7 5.4 4.4zm-2.7 4.4c-.6-.3-1.5-.7-2.4-1.3-1-.6-2.3-1.9-2.4-3.1.2-.4.3-.9.5-1.3 1.3 2 4 3.6 5.9 4.7-.5.4-1 .7-1.6 1zm-6.4 3.3c.1-1.8.4-3.5.9-5.3 1 1.3 2.6 2.4 3.8 3.1-.3.2-.6.3-.9.5-.4.2-2.4 1.1-3.8 1.7zm23.1-20.1c-2.4 14.6-10.9 20.7-20.5 20.9 1.3-.6 2.7-1.4 4.3-2.3.1 0 .2-.1.3-.2 5.9-3.4 12.4-8.5 10.3-12.9-1.9-.4 0 2.1-4.9 6.7-.7-.3-1.6-.8-2.7-1.5-2.9-1.9-4.3-3.4-5.1-4.3 2.4-3.2 5.7-6 9.9-7.5 2.7-1 12.7-5.3 8.4 1.1z"/><path d="m91.1 350.4c-.3 1.2-53.2 50.1-61.8 48.9-1-.7-6.6 1.1 5.6-10.1 13.3-12.3 34.5-33.6 50.8-49.9z" fill="#537225"/><path d="m91.9 350c-5.6-11.4-5.1-11.3-5.9-11.6-49.2 48.6-66.5 61.1-57.3 61.7 15.2-2.7 56.3-41.7 63-50-.5.3-1.1.5.2-.1zm-62.1 48.4c-.6-.3-1.4-.3-1.5-.3h-.1l-.1.1v-.2c2.6-4.9 2.2-2.3 57.6-57.4l4.5 9.3c-11.6 11.2-44.4 43.1-60.4 48.5z"/><path d="m219.6 283s10.7 1.3 12.8 11.3c4.9 23.4-24.1 28.7-31 28.4-22.8-1-30.5-15.7-30.5-15.7l9.3-13.3s24.1-5.1 24.6-5.1 14.8-5.6 14.8-5.6z" fill="#596c4c"/><path d="m233.3 294c-2.1-10.6-13.4-12-13.5-12.1-.2 0-.3 0-.4.1l.3 1-.3-.8c-12.8 5.7-23.8 7.3-39.4 10.6-.9.4.3-1.2-9.7 13.7-.2.3-.2.6-.1.9 14.6 25.8 69.4 18.7 63.1-13.4zm-18.7 25.4c-15.9 6.1-34.4.2-42.7-12.4l8.7-12.5c23.8-5.6 11.9-.3 39.2-10.6v-.1c20.3 4.7 12.9 31.6-5.2 35.6z"/><path d="m217.7 279.5s10.3 1.4 12.3 11.6c4.6 23.9-23.2 29.4-29.8 29.1-21.9-1-29.3-16.2-29.3-16.2l8.9-13.6s23.2-5.2 23.6-5.2 14.3-5.7 14.3-5.7z" fill="#a1141c"/><path d="m227.8 284.5c-4.5-5.2-9.6-5.8-10.5-5.7v-.1c-9.1 3.6-11.6 4.8-14.2 5.6 0 .2-19.3 3.7-24.2 5.5-8.7 14-9.2 13.6-8.8 14.5 14 29.8 76 16.5 57.7-19.8zm-14.8 32.3c-15.6 6.4-33.4-.3-41.1-12.7l8.4-12.7c12.6-2.5 27.8-5.8 37.7-10.7v-.2c14.3 2.9 19.5 26.2-5 36.3z"/><path d="m82.5 342.3s-42.1 28-59.7 33.1c-14.2 4.2-13 1.8-3.1-4.4s51.5-30.6 56.3-37.3c4.7-6.6 6.5 8.6 6.5 8.6z" fill="#537225"/><path d="m83.6 342.3h-1l.9-.1c-.1-1-2.3-16.6-8-9-5.9 8-62.4 39.8-64.9 43.5 8.9 10.3 75.4-35.2 73-34.4zm-71.1 34.9c10.7-8.2 55.5-32.5 64.2-42.8 2.9-4.8 4.5 5 4.8 7.5-17 11.2-50.3 33-69 35.3z"/><path d="m76.3 336.8-5.8-7.4s-30.2 18.3-42.4 23-28.4 12.8-23.1 13.3c9.5.9 61.9-23.2 71.3-28.9z" fill="#537225"/><path d="m77 336.3c-5.4-6.4-5.8-8.4-6.9-7.5-34.4 23.1-70.4 30.6-66.1 37.7 7.3 2.3 70.1-24.9 73-30.2zm-55.8 24.4c-1.3.4-13.9 4.7-16.3 4.2 4.3-3.6 18.2-9.5 23.5-11.6 11.9-4.6 37.6-20.2 41.9-22.8l4.7 5.9c-16.4 7.8-22.1 14-53.8 24.3z"/><path d="m216.4 270.5c25.5 47.1-48.4 62-35.6-7.1l25.7-5.5 9.9 12z" fill="#f6a800"/><path d="m215.6 270.9c12.2 23.2 3.5 38-16.2 38.5-22.1 2.6-18.9-45.1-17.7-45.8l-.9-.2.2.9 25.3-5.4 9.5 11.6c.9.9 2-.4 1.3-1.1-10.3-12.3-9.7-12.5-10.7-12.3-26.4 5.8-26.2 5-26.5 6.1 0 .1-3.6 17.7 2.7 35.7 4.4 17.1 31.4 15.1 38.2.4 6.2-13.5-4.4-33.6-5.2-28.4z"/><path d="m92.2 323.1-27.2 2.2s10.6 13.1 21.5 24.5 29.3 24.3 29.3 24.3l4.2-40.2z" fill="#a1141c"/><path d="m92.2 323.1-.1-.9c-28 2.4-27.5 1.7-27.9 2.7-.4 1.5 10.4 13 21.6 25.4 11.7 11.2 29.6 26.6 30.8 23.8 4-40.8 4.8-40.8 3.6-41.1-.5-.1-27.8-10.8-28.2-10.8.2.4 0 1.2-.3 1.6l27.3 10.6-4.1 39.6.9.1.5-.7c-29.9-21.8-34.3-30-50.6-48.8l-.7.5.1.9 27.2-2.2-.1-.7c-.3.8-.6 1.3 0 0z"/><path d="m76.4 324.3c15.2 17.8 21.8 24.9 40.6 39.1l3-29.6-27.9-10.7z" fill="#f6a800"/><path d="m76.4 324.3-.7.5c16.2 18.3 22.1 26.5 41.5 39.4.3-.1.5-.4.5-.7 2.8-29.4 3.6-30.2 2.5-30.5l-27.9-10.7c-.2-.2.3-.1-16.1 1.1-.7 0-1 .9-.5 1.4l.7-.5.1.9 15.6-1.2 27 10.5-2.9 28.9.9.1.5-.7c-16.9-12.5-25.5-21.2-40.4-39l-.8.5c.1.9.2 1.4 0 0z"/><path d="m108.9 311.5-27.3 6.1 45.6 38.6 1.5-36.5z" fill="#369ba1"/><path d="m108.9 311.5-.2-.9c-27.9 6.5-27.7 5.8-28 6.7 44.8 39.5 47.2 40.4 46.7 39.6 1-.4 1.1 1.4 2-37.2.7-.6-1.9-1.6-20.8-9.3l.3 1.1-.3.8 19.1 8-1.4 34.1-42.9-36.3 25.6-5.7-.1-.9c-.3.8-.6 1.3 0 0z"/><path d="m120.2 302.1-21.5 5.6 36.9 29.9 3.5-25.2z" fill="#a1141c"/><path d="m120.5 301.4c-.2-.1-.4-.2-.6-.1v-.1c-23.3 6.7-22.3 4.2-21.9 7.2 38.5 31.1 36.9 30.5 37.8 30.2s.3.2 4-25.9c.3-1 .2-1.4-19.3-11.3zm14.4 34.7-34.4-27.9 19.5-5.2 18.1 10z"/><path d="m122.5 281.5c-22.4 17.4 17.2 46.1 33.4 36.3 7.8-5.9 17.7-36.5 17.7-36.5l-17.7-17.3-17.9 2.7z" fill="#369ba1"/><path d="m174 280.6c-18.6-18-17.6-17.5-18.3-17.5-19.1 2.9-18.2 2.6-18.3 2.9l-15.4 14.8c-23.7 19.5 19.7 48.4 34.3 37.6 7.5-6.2 17.7-33.9 17.7-37.8zm-18.5 36.5c-11.5 9-54.4-15.2-32.4-34.9h.2c-.1-.1-1.5-1.5-.1-.1l15.3-14.6 17.2-2.6 17 16.5c-3 8.5-10.6 30.5-17.2 35.7z"/><path d="m131.6 279.4c-13.2 23.7 11.3 33.5 31.6 23.4 6.3-3.7 10.1-27 10.1-27l-13.8-7.2z" fill="#537225"/><path d="m160.1 267.8c-28.2 10.1-29.7 11.3-29.1 11.2.6.3 1 .6-.2-.1-15 28.6 19.1 33.3 32.8 24.6 5.5-3 10.6-24.6 10.6-27.7.3-1-.5-.6-14.1-8zm4.5 32.3c-5.2 7.5-47.2 12.5-32.3-20.1l27.3-10.6 12.8 6.7c-1.4 7-3.9 18.3-7.8 24z"/><path d="m133.8 255.3s-19.1 17-17.7 23.8 7.2 6.8 10.3 5.7c3.2-1.1 21.8-30.2 21.8-30.2z" fill="#fff"/><path d="m148.9 254.1c0-.6-2.4-.3-15.8.5.1.1 1.5 1.5.1.1-.7.8-17.9 16.2-18 23.6-.1 5.4 6.6 9.7 11.5 7.3 3.3-1.3 22.2-30.5 22.2-30.6.2-.3.2-.7 0-.9zm-22.5 29.7c-6 2.1-11.1-2-8.7-8.3 2.7-6.8 15.1-18 16.6-19.4l12.3-.6c-3.8 5.9-18.6 28.3-20.2 28.3z"/><path d="m152.4 280.9s-.5 6.2 3.8 6.5c10 .6 10-9.3 18.3-24l-4.8-9.1-5 .3z" fill="#fff"/><path d="m152.4 280.9-.9-.1c-.5 6.1 4.5 10.3 11.3 5.6 4.1-2.8 5-7.8 12.6-22.7.3-1-.3-.9-4.8-9.9-.5-.8-1.1-.2-5.8-.2-.6-.4-.8.5-13.3 27 .4.1 1.3.3 1.6.5l12.1-25.9 4-.2 4.6 8.6.8-.4-.8-.3c-9.3 18.3-9.2 23.5-17.5 23.5-2.4 0-3.1-3.3-3-5.5h-.9c.7.3 1.3.6 0 0z"/><path d="m168 255.5s-16.3 31.5-21.5 37.1c-2.3 2.5-6.7 1-8.2-1-1.9-2.6-.7-6.2-.7-6.2l24.1-41.6h4.9z" fill="#fff"/><path d="m167.8 255.4c-.4-.2-1.1-.6.2.1l.9-.1c-1.6-10.6-.9-12.6-2.2-12.5-4.7 0-5.2-.3-5.7.4l-24.2 41.8c-1.7 4.2 1.6 10.4 6.5 9.8 8.2-.4 24.8-39.3 25.6-39.4h-.9zm-27.1 37.1c-3.6-1.6-2.6-5.7-2.4-6.7l23.9-41.2h3.6l1.3 10.8c-19.9 36.6-20.7 39.6-26.4 37.1z"/><path d="m148.7 252.1-21.8 29.5s-5.1 6.1.6 8.9c5.7 2.9 8.1.3 9.1-1.6s27-43.5 27-43.5l-.3-13.3-8 3.6z" fill="#fff"/><path d="m148 251.6-21.7 29.5c.7.5 1.1.9 0 0-7.5 8 6 16.7 11.2 8.3 0-.4 27.1-43.3 27.1-44l-.3-13.3c0-.4-.5-1-1.2-.8-8 3.7-8.1 3.5-8.4 4.1l-6.7 16.4.8.3c-1.6-1.2-.1.1.8.3l6.6-16 6.4-2.9.3 12h.9l-.7-.4c-.1.1-27.6 44.7-28.4 45.3-2 1.4-4.3.6-6.6-.4-3.4-1.5-2.4-4.7-.3-7.5 0-.2-1.6 2.2 21.8-29.8-.2-.1-1.7-1.2-1.6-1.1z"/><path d="m171 261.4c-14.9-7.4-14.5-60.4 12.2-57.7l6.5 12.9-5.3 32.9z" fill="#f6a800"/><path d="m171 261.4.4-.7c-20.7-20.1-6.2-59.4 11.6-56.2l.1-.9-.8.4 6.4 12.6-5.1 32.3-13.2 11.9.6.6c.5-.6.8-1.2 0 0l.6.6c13.8-12.5 13.8-12 13.8-12.5l5.3-32.9c0-.7.3.3-6.6-13.4-1-1-6.3-1.4-13.1 3.2-14.3 9.7-15.5 47.7.6 55.6z"/><path d="m148.1 186.5c-62.2 16.6-128.6 22.6-36.8 87.7 16.9-22.4 44.2-59.4 80.6-67.2 6.1-38.2-25.9-25.3-43.8-20.5z" fill="#f6a800"/><path d="m147.9 185.6c-7.4 2.2-79.3 18.8-83.8 31.4-4 11.3 19 36.9 25 41.2 6.9 4.9 21.7 18.1 22.8 16.4 24.6-35.9 43.1-55.8 80.7-67.7 6.1-39.1-26-26.2-45-21.4l.3.9c-.4-2-.1-.1.3.9 20.6-5 48.1-17.1 42.6 19.6l.9.2-.3-.9c-36.3 7.5-64.9 45.9-81 67.5l.7.5.5-.7c-86.7-63.9-34.6-66.2 36.6-86.3-.2-.9-.1-.5-.3-1.6z"/><path d="m102.7 194.4 38.1 53.8 9.1-12.3s-34-43.5-34.4-44c-.5-.3-12.8 2.5-12.8 2.5z" fill="#369ba1"/><path d="m150.5 235.5c-.1-.1-34.4-44-34.4-44-2.7-1-5.7.7-9.3 1.1-3.2 1-5.5.3-5 2.3l.9-.4-.7.5c40.8 57.3 37.9 54.2 38.8 54.2s.3 0 9.8-12.6c.2-.4.2-.9-.1-1.1zm-9.7 11.2-36.6-51.7c8.9-1.9 7-1.6 10.5-2.1 1.8 2.3 30.2 38.5 33.8 43.1z"/><path d="m104.9 171.8s-7.3-48.9 64.6-65.9c11.8-2.8 14.9 54.7 14.9 54.7l-6.8 19.1-44 3.5z" fill="#fff"/><path d="m185.3 160.4c-.7-4.8-3.3-58.6-15.9-55.5-41.6 7.9-70.9 40.9-64.8 67.5l-.1.1 28.8 11.2c45.4-3.4 45.4-3.3 45.1-4 .1-.3 6.9-18.9 6.9-19.3zm-51.4 21.8-28.3-11.1c-3.4-25.9 23.4-57.4 64.7-64.6 9.5 0 12.6 47.2 13.3 54l-6.5 18.3z"/><path d="m120.6 176.3s3.6-52.7 59.6-59.7c10.3-1.3 12.8 47.1 12.8 47.1l-5.9 16.4-37.8 3z" fill="#f6a800"/><path d="m184.8 118c-30.9-10.1-66.8 33.4-64.3 58.7l-.1.4 28.7 6.8c40.2-3.5 38.3-2.5 38.8-3.6l5.9-16.4c.1-8.5-3-38.1-9-45.9zm1.9 61.3-37.1 2.9-28.1-6.6c.8-22 24.4-57.3 59.1-58.1 8.3-.2 11.1 41.1 11.7 46.1z"/><path d="m132.7 188.9s3.6-52.7 58.6-59.7c10.1-1.3 12.5 47.1 12.5 47.1l-5.7 16.4-37.1 3z" fill="#369ba1"/><path d="m193.8 129c-32.9-3-63.5 35-61.3 60.7l.3-.7c.9.1 1.4.2 0 0l-.2.9 28.2 6.8c39.5-3.4 37.6-2.5 38.2-3.6l5.7-16.4c-.1-8.3-3.1-42.9-10.9-47.7zm3.7 62.9-36.4 2.9-27.5-6.6c2.4-30.2 29.1-57.3 58-58.1 7.8-.2 11 38.1 11.3 46.1z"/><path d="m155 221.5s-17 19.9-23.6 23.2c-6.7 3.3-11.5 5.6-7.2 10.6 5.4 6.2 11.7-3.3 38.3-33.3z" fill="#a1141c"/><path d="m155 220.8c-.2 0-.4.1-.6.2-26 31.4-26.7 19.5-32.7 31.1 1 7.8 9 7.4 13.4 1.8 5.1-4.8 28.5-30.9 28.1-31.9-.3-.9-1.6-.5-8.2-1.2zm-31.3 32.3c-1.7-3.5 4-5.6 8-7.7 6.1-3.1 20.4-19.6 23.4-23l5.5.4c-28.7 33.3-32.3 37.9-36.9 30.3z"/><path d="m369.1 440.7 5.7 13.3s-2.9 2.2-11.3 2.9-12.5-.4-12.5-.4l6.9-12.7z" fill="#fff"/><path d="m156.4 187.1s-4.1 27.9 1.5 30c13.6 2.4 40.5-10.9 28.3-29.2-4.2-.8-13.6-1.6-17.8-1.9l-4.6-5.5z" fill="#fff"/><path d="m186.7 187.6c-.8-1.1-15.4-2.1-18.2-2.3-7.3-7.8-2.7-8-13.2 1.8h.2c-1 5.5-2.8 24 .1 29.2 3.4 6.2 24.5-1.6 29.8-8.2 6.8-3.8 4.7-15.7 1.3-20.5zm-1.6 18.4c-4.6 5.8-19.5 12.1-26.9 10.3-4.1-1.9-1.7-23.4-1-28.8l6.3-5.8c4.3 5 3.9 4.9 4.7 5.2 4.1.3 13.4 1 17.3 1.8 3 6.4 4.9 12.8-.4 17.3z"/><path d="m377.2 435.2 5.6 15.3 16.3-17.9-19.6-4.8z" fill="#fff"/><path d="m357 435.2-5.2 11.8c11.2 1.8 32.6-10.3 36.9-20.7l-15.7-8.9z" fill="#fff"/><path d="m389.1 425.5c-15.4-8.4-15.7-9.7-16.7-8.7-.3.3-15.9 17.7-16.1 18.1.1.1.3.1.4.2l-.5-.2c-5.3 12.3-5.5 11.9-5.1 12.5.7 1.1 12.3.7 22.3-5.2 11.9-7 17.1-15.4 15.7-16.7zm-31.9 9.9c.2.2.3.3.3.3s-.1-.1-.3-.3zm-4.2 10.7 4.6-10.4 15.5-17.3 14.3 8.1c-11 17.7-29.5 19.4-34.4 19.6z"/><path d="m365.1 401.2 33.6.6-11.1 19.9s-10.5-9.8-18.1-11.7c-7.5-1.9-4.4-8.8-4.4-8.8z" fill="#fff"/><path d="m308.4 371c2.6 8.4 64 10.3 42.5-14.4-7.9-7.9-14.9-4.9-14.9-4.9 5.5-4.5 8.8-17.3 1.8-22.9-10 38.1-47.6 14.7-29.4 42.2z" fill="#a1141c"/><path d="m307.8 371.6c3.7 6.4 33 8.8 44.1 1.2 13.1-9-5.9-26-16.3-22 .1.4.6 1.1 1 1.4 0-.1 13.1-13.1 1.8-24.3-.6-.4-1.3-.2-1.5.4-3.5 11.2-11.5 23.6-23.9 24.3-13.7.8-11.7 12.1-5.5 18.8.4-.2 1.1-.7 1.5-1-7-8.6-6.6-15.2 4.3-15.9 18.8-1.3 25.4-25.5 25.4-25.6l-.9-.3-.6.6c.2-.3.1-.2 0 0 11.2 10.6-6 24.1-1 23.2 6.2-2.4 14.6 3.7 17.1 8.9 8.2 16.9-36.3 18-44.6 9-.1.1-.2.2-.6.7 1.7-1.3.7-.4-.3.6z"/><path d="m234.6 269s4.4-4 12.7-5.1c8.4-1.1 18.6-1.1 16.4 1.5s-13 6.1-13 6.1z" fill="#a1141c"/><path d="m264.6 263.9c-4.4-4.3-34.2 1.2-30.1 6-.1 0 15.1 2.2 16.6 2.4 2.6-1.2 15.6-4.6 13.5-8.4zm-5.6 3.5c-8 4.8-14 2.2-22.3 1 6.7-4.4 22.1-5.2 26.6-3.6-.3.3-.9.9-4.3 2.6z"/><path d="m242.3 255.2c7.9 14.6 5.7 10.6-9.2 15.8 0 0-9.7-5.2-9.9-5.6 4.1-7.8 12.7-8.1 19.1-10.2z" fill="#fff"/><path d="m247.9 264.5c-2.1-4.7-4-10.2-5.7-10.2l.2.9-.3-.9c-7.7 2.4-17.7 3.5-19.3 11.7 1 1 10 5.8 10.1 5.8 12.2-2.9 16.6-4.7 15-7.3zm-1.5 1.3-.1-.1s0 0 .1.1zm-17-5.9c.2-.2 10.1-3 12.4-3.7 1.7 3.4 3.3 6.2 4.3 9.6-1.8.8-10.8 3.7-13.1 4.3-6-3.1-8-4.4-8.8-4.9 3.4-4.1 4-4.4 5.2-5.3z"/><path d="m235.4 269.7c.7 1.1 2.1.1 1.6-.9-4.3-7.5-4.6-9.9-6-9.1-.4.3.4 1.9 4.4 10z"/><path d="m235.7 259.2 4.8 8.7c.7 1.1 2.1.1 1.6-.9-4.5-7.7-5.5-11.6-6.4-7.8z"/><path d="m187.7 269.4c7.6-2.4 21.8 9.6 32.3 6.9 7.5-1.9 21-4.5 25.1-2.9s8.2 3.9 10.4 2.3c9.1-6.7-16.7-7.9-21.9-7.1-7.2.7-5-4.5-2.4-5.8s14.1-6.4 19.7-6.3c12 .2 8.2-4.8 2.6-6.3 0 0 5.8-3.2 6.3-6.1.6-2.9 2.6-22.5 2.4-27.5s-46.3 19.3-46.3 19.3c-6.7 2.6-23.6 9-29.9 12.2.4 4.9.4 16.5 1.7 21.3z" fill="#a1141c"/><path d="m260.5 244.5c.3-1.4 2.4-20 2.4-27.8 0-6.9-36.1 13.1-47.4 18.5.2.3-31 11.2-30.4 13.1.7 1.5-.3 21.5 2.5 21.7 0-.7-.1-1.2.1.2 21 1 17.3 11.5 43.1 4.8 17.5-4.6 16.2 4.1 25.1 1.6 9.4-6.9-11-9.7-22.4-8.6-3.6.9-5.7-2-2-4.2 4.3-2.2 14.5-6.2 19.3-6.2 11.1 0 10.9-4.7 4.5-7.4 2-1.3 4.6-3.2 5.2-5.7zm-2.7 9.7c.1.1.1.2.1.3-1.3 1.3-5.4 1.4-7.2 1.4-5.1 0-16.8 4.7-20.1 6.5-4.5 2.5-3.7 8.7 3 7.4 11.4-1.1 23 1.9 23 3.4-.7 2.3-2.2 3.5-6.6 1.6-4.9-1.8-5.3-3.7-19.4-1.2-24.9 7.4-21.7-3.9-42.3-4.8-1.2-5.7-1-15.4-1.5-19.9 5.9-3 22.8-9.5 29.2-11.9 15.1-7.2 31.5-17.1 44.9-19.8-.6 10.8-1.3 18.1-1.8 22.7-.6 4.8-.5 5.1-1.6 6.2-2.2 2.3-4.4 3.3-4.8 3.7-2 1.9 5 2.6 5.1 4.4z"/><path d="m256.3 208.2-8.7-7.4s-5.2-.7-6.1-.5c-6.6 2.9-18.9 7.1-25.7 8.8l-14.5-2.4s-5.9 3.5-10.1 4.9-14.6 15.7-15.3 23.5 8.7 12.7 8.7 12.7l2.2 4s22.1.5 23.7.5 6.3-3.5 7.8-4.8c1.5-1.2 13.8-5.9 15.1-5.9 1.2 0 22.1-16 22.1-16 .2-1.9 2.2-6.2 3-8z" fill="#596c4c"/><path d="m257 223.2c2.3-5.5 2.3-4.9 2.3-5.5l-2.2-9.6c-11.4-12.3-14.4-8.7-31.3-2.7 0 0-.7.3-10 3.1-14.3-2.3-14.4-2.5-14.9-2.2-8.7 5.1-9.6 4.2-12 6.1-10.6 9.4-21.7 28.1-4.8 36.4 1.9 3.3 1.9 4.2 2.8 4.2 0 0 23.3.5 23.7.5 2.5 0 7.8-4.6 9.2-5.5 3.8-2 12.9-5.2 13.6-5.2 2.8-.4 22.8-16.1 23.2-16.6-1.3-.3-1.6-.3-.3-.1zm-2.5 2.1c-22.4 17-21.5 15.5-21.5 15.6-30.5 9-6.4 11.8-45.9 10-2-4.2-1.7-3.1-6.7-7.2-9.7-9 1.2-21.5 8.1-29.5.2-1.1 8.8-4.1 12.7-6.7 21.6 6.7 29.2-6.8 45.7-6l8.4 7 2.1 9c-2.6 6-2 4.4-2.9 7.8z"/><path d="m287.2 184.3c35.7-3.9 28.8-1.6 10.3 21.3l-13.1 1.1-1.7-12.1z" fill="#a1141c"/><path d="m287.2 184.3.1.9c2.5 0 20.3-2.5 25.3-.6l.2-.2-.2.1c0 .1-.1.2.2-.1-.3.2-.3.1.2-.1h-.3v.2l.3-.2h-.3c-2.2 5.3-11.9 16.4-15.6 20.8l.7.6-.1-.9-12.2 1-1.6-11.1 4.3-10.1-1-.3c.1.9.2 1.4 0 0l-.8-.3-4.4 10.3c-.2.4-.2-.2 1.6 12.5-.5 1.3 4.2.6 14.6-.6 18.3-22.1 26.9-28.1-11.9-22.1z"/><path d="m148.1 178.6s3.5-34.7 58.6-39.5c10.1-.9 12.6 31.1 12.6 31.1l-5.7 10.9-37.1 2z" fill="#a1141c"/><path d="m219.9 170.2c-.4-2.2-2.2-32-13.4-32-34.2 2.5-58.5 20.6-58.7 41.3l.3-.9c.9.1 1.4.2 0 0l-.2.9 28.2 4.5c39.1-2.2 37.7-1.6 38-2.4 5.9-11.5 5.8-10.8 5.8-11.4zm-6.8 10.1-36.6 2-27.4-4.4c4.1-29.1 49.6-39.1 58-38 8.2 0 11 27.2 11.4 30.2z"/><path d="m181.3 46.6c20.2 0 20.2 32.7 0 32.7s-20.2-32.7 0-32.7z" fill="#fff"/><path d="m197.5 62.9c-.3-22.5-32.5-22.5-32.5 0s32.2 22.5 32.5 0h-1.7c-2.9 29.7-42.2 10.9-24.7-11 8.9-9.6 24.7-2.9 24.7 11 .1 0 1.8 0 1.7 0z"/><path d="m181.3 51.6c13.8 0 13.8 23.5 0 23.5-13.9 0-13.9-23.5 0-23.5z" fill="#fff"/><path d="m192.8 63.4c-.1-16.5-23-16.5-23 0s23 16.5 23 0h-1.7c-1.8 20.7-28.6 7.7-16.7-7.7 6.1-6.6 16.7-2.2 16.7 7.7.1 0 1.8 0 1.7 0z"/><path d="m181.3 58.5c7.4 0 7.4 14.2 0 14.2s-7.4-14.2 0-14.2z" fill="#fff"/><path d="m187.9 65.6c-1.8-16.1-18.9-4.7-11.2 5.6 3.9 5.2 11.2 1.9 11.2-5.6h-1.7c.1 8.1-9.8 8.1-9.7 0 .1-8.7 10-7.4 9.7 0 .1 0 1.8 0 1.7 0z"/><path d="m161.5 75.1s8.9 8.6 10.2 19.6 20.8 5.7 22.2-.4 8-15.1 9.9-18.9c1.1-2.1-32.8-8.4-42.3-.3z" fill="#fff"/><path d="m192.8 71.2c-24.2-3.9-33.6 2.8-32.2 4.3.4.4.8.8 1.1 1.2 2.3 2.6 7.9 9.3 9 18.1 1.5 11.9 22.3 6.7 24-.3 1.7-6.7 9.9-17.7 9.9-19.1 0-2.4-9.5-3.8-11.8-4.2zm.2 23c-1.1 4.3-12.6 8.4-18.1 4.9-3.1-1.3-3.5-15.8-12.2-23.7 7.6-5.5 32.6-3.2 40 .2-2.4 4.6-8.1 12.3-9.7 18.6z"/><path d="m192.8 83.7c-.5.9.9 2 1.6.9 5.1-10.2 6.8-11 5.4-11.9-.5-.3-1.8 1.7-7 11z"/><path d="m189.4 83.9c-.4 1 1.2 1.7 1.6.6 3.7-10.4 5.4-12.2 3.8-12.8-.4-.2-1.4 2.3-5.4 12.2z"/><path d="m186.2 84c-.2 1.1 1.7 1.3 1.7.2 1.2-11.2 2.6-13.4 1-13.4-.5 0-.7 1.9-2.7 13.2z"/><path d="m181.9 83.6c0 1.1 1.5 1.3 1.7.2.3-11.2 1.4-13.1-.2-13.3-.4-.1-.6 2.4-1.5 13.1z"/><path d="m176.8 71.2.3 13.2c0 1.1 1.7 1.1 1.7 0-.3-12.2.8-16.1-2-13.2z"/><path d="m173.6 84c.2 1.1 2 .9 1.7-.3-2.6-11.3-1.7-13.3-3.3-13-.4 0-.3 2.6 1.6 13.3z"/><path d="m165.2 73.1 5.5 11.3c.3 1 2 .4 1.6-.7-5.7-10.6-5.8-14.1-7.1-10.6z"/><path d="m167.2 82.5c2.1 3.4 4 7.6 4.5 12.3 1.2 11 20.6 5.7 22.2-.4.9-3.4 3.1-7.6 5.4-11.3-7.7-3-19.2-5.2-32.1-.6z" fill="#a1141c"/><path d="m167.2 82.5-.8.4c5.2 8.6 3.6 12.1 5.5 15.2 3.8 6.2 15.6 4 20.9-.7 3.1-2.8.9-4.4 7.2-14-3.6-5.2-29.4-6.6-33.6-.5l.8-.4.3.8c9.8-3.5 20.7-3.5 31.6.5l.3-.8-.8-.4c-2.2 3.8-4.6 8-5.5 11.6-1.4 5.3-19 10.6-20.6.6-.8-4.8-2.6-9.3-4.7-12.6l-.6.3c.3.7.5 1.3 0 0z"/><path d="m183.1 90.3c23.4 0 23.4 26.3 0 26.3s-23.5-26.3 0-26.3z" fill="#369ba1"/><path d="m182 89.6c-35.2 4.1-11 40.1 14.2 23.8 13.1-9.6 1.3-25.6-14.2-23.8zm1.2 26c-15 0-22.7-12.9-12.1-20.8 23.7-14.8 44.9 18.1 12.1 20.8z"/><path d="m297.2 45.5c-3.7 12.9-21.9 1.9-15.3-9.7 17.7-16.3 38.7 11.8 42.3 22.1l-13.4 1.8c.1-.1-8.5-11-13.6-14.2z" fill="#fff"/><path d="m325.1 57.5c-14-36.3-55.4-32.6-42.7-9.7 4.6 6.6 12.7 5.3 15.3-1 4.2 3.2 10 10.1 12.8 13.8l15.1-2.1zm-27.4-13-1-.7-.3 1.2.8.4-.9-.2c-3.7 12.1-19.6.4-13.8-9 15.9-14.9 35.8 9.1 40.5 20.7l-11.8 1.6c-1.5-2-8.8-11.1-13.5-14z"/><path d="m335.6 55s4.5-20.4 14.6-27.6 23.2-12.7 27.4-2.7-.9 14.3-3 15.1c-10 3.9-12.3-4.9-12.3-4.9-16.2 7.4-5.6 29.9-26.7 20.1z" fill="#fff"/><path d="m374.6 19.8c-10.4-5.8-28.7 8.2-31.7 14.5-5.8 9.3-8.1 20.4-8.4 21.1l.5.3.5-.8-.4.8c22.1 10.4 12.2-12.8 26.7-19.4 2.2 5.4 8 6.7 13.1 4.3 8-2.9 5.9-17.4-.3-20.8zm-.1 19.3c-4.9 2.6-10.8-.3-11.3-5.3-18.2 7.5-6.6 29.8-26.5 20.8 5.1-23.1 21.1-37.3 37.2-33.3 4.7 2.8 7.2 15 .6 17.8z"/><path d="m312.9 16.4c3 .2 13 21.1 12.8 22.5h11.5c-3.7-8-4.9-30.9-19.7-37.1-17.7-7.3-21.9 27.6-4.6 14.6z" fill="#fff"/><path d="m313.1 10.1c-4.8-2-7.6 1.8-4 3.3 3.5 1.5 3.8 3 3.8 3s4.6 3.6 7.9 10.8 4.9 11.8 4.9 11.8l4.8-.1c-2.7-18.4-12.9-26.9-17.4-28.8z" fill="#f6a800"/><path d="m338.4 39.7h-13.3c-7.7-20.3-9.3-18.2-12.2-22.2-10.7 9.1-17.5-6.8-6.4-15.5 9.4-7.3 22.4 7.1 22.3 8.7 1.9 2.9 6.9 20.6 9.6 29zm-9-1.6c-1.4-8.4-4.4-14.7-7.7-19.1-8.5-11.5-14.6-8.4-13.2-6.9 6.3 4.1 7.5 5.3 13 15 .1 0 4.4 9.9 4.8 11.1h3.1zm1.8-.1h4.8c-1.4-4.7-6.8-23-8.8-26.4-5.2-9-18.2-15-23.7-3-2.9 6.4 1.5 13.8 8.4 7.5-1.4-1.7-3.7-2-4.7-3.2-3-3 4.9-10.2 15.9 4.8 5.8 7.9 7.5 16.7 8.1 20.3z"/><path d="m310.9 59.6 6.8-1c-.2-4.8-20.1-29.4-29.8-19.8-1.4 1.4-1.4 5.5 2.9 5.1 8.6-1.7 18.4 14.7 20.1 15.7z" fill="#f6a800"/><path d="m318.9 59.6c-.1-.1-4.3-12.5-15.7-19.6-7.1-4.4-15.1-6.6-16.9 1.2.3 6.4 8.1 2.2 10.2 4.8-.7 0 4 1.7 13.9 14.7l.5-.1v-.1c.9-.1 7.4-1.1 8-.9zm-20.9-14.7c-4-4-10 .3-10-3.8 1.5-6.6 10.3-2.2 14.3.3 8.5 5.3 12.8 13.8 14 16.6-2.6.3-4.3.6-5.2.7-1.7-2.3-8.5-10.8-13.1-13.8z"/><path d="m366.5 28.7c-12.1-2.3-22.2 17.2-23.5 28.6 3.5.3 7.1-.7 8-6.2 1.6-9.3 9.2-16.1 14.4-17.3 2-.5 3.8-4.3 1.1-5.1z" fill="#f6a800"/><path d="m367.1 28c-14.3-3.4-24.1 20-25.2 30.1 13.9 2.3 6.4-15.7 21-22.4 0 0 .9-.6 2.7-1 3-.5 4.5-5.6 1.5-6.7zm-1.9 4.9c-18.1 5.6-11.4 24.2-21.2 23.6 4.8-29.6 29.7-30.6 21.2-23.6z"/><path d="m324.1 153.1c-1.8-23-7.3-37.8-7.3-37.8l44.8-24.7-8.1-32-40.7 5.7 12.6 24.7c-33.5 27.9-30.4 1.1-16.5 60.4 0 0 15.5 7.2 15.2 3.7z" fill="#fff"/><path d="m317.9 115.7 44.8-24.6-8.5-33.4-42.7 6 7.3 14.3c0 .3.1.9.5 1 1 2.2 3.9 7.7 5 10-32.6 26.8-30.6 1.2-16.1 61.1 0-.5 16 8.8 17 2.9h-.2c-1.5-20.2-6-33.9-7.1-37.3zm38.7-41.4c-1.6.7-7.5 1.9-8.4 2.1-17.1 3.6-23.8 3.9-26.2 4.4l-.9-1.8c3.4-.4 12-2.4 35-6.7zm-42.5-9.2 38.8-5.5 2.8 10.8c-24.3 4.4-32.7 5.7-35.5 6.6zm9.2 88.1c-1 1-10.1-2.7-13.8-4.2-14-60.2-16.9-30.2 16.7-59.7l-3.5-6.8c5.4-.8 28.7-4.4 34.2-6.4l3.6 14.2-44.9 24.7c1.2 2.9 5.8 15.5 7.7 38.2.2 0 .2 0 0 0z"/><path d="m357.7 48.9 2.6 13.8-46.6 5.1-5-10z" fill="#fff"/><path d="m341.5 51.9 2.7 12.5 6.4-.7v-13.4z" fill="#f6a800"/><path d="m331.2 53.8 2.9 11.9-10.1 1.1-3.7-11z" fill="#f6a800"/><path d="m361.3 63.5-2.9-15.5-51 9.3 5.8 11.6c98.6-11.1 8.6-1 48.1-5.4zm-2-1.5-7.9.9v-12l5.5-1zm-9.6-10.7v11.7l-4.8.5-2.3-11zm-25.2 14.5-3.1-9.3 9.2-1.6 2.4 10c-7.6.8-5.8.5-8.5.9zm-10.4 1.1-4.2-8.4 9.7-1.7 3.1 9.3zm20.6-2.2-2.4-10.2 8.6-1.6 2.2 10.9z"/><path d="m300.8 130c-10.2-32.7-51.1-44.4-67.5-14l-14.8-2.2c15.3-50.3 95.6-37.6 91.7 19.3z" fill="#537225"/><path d="m306.4 131.7c-7.8-45.7-58.6-54.4-79.7-16.9l6.6 1c22.8-37.5 62.5-7.9 67.5 14z" fill="#39531b"/><path d="m263.5 80.8c-21.4 1-42.5 14.6-45.9 33.7l16.3 2.5c18.4-32.9 57.2-15.8 66.3 13.8l.4.1c.3-.9.4-1.2 0 .1l10.3 3.2c4.4-22.2-15.5-52.9-47.4-53.4zm-30.7 34.2-13.3-2c20.1-51.7 94.2-30.3 90 19l-8-2.5c-14.5-39.8-55-40.1-68.7-14.5z"/><path d="m276.3 291.4c-4.2-.9-12.6 4.4-15.5-2.7-.5-1 .1-2.3-1.2-2.5-2.1-.7-.3 8.4 7.7 7.9-2.3 1.4-6.9 6.4-4.1 8.8 1.7 0-.2-2 2.6-5.3 2-4 10.9-3.4 10.5-6.2z"/><path d="m281.8 288.1c.4 4.8-1 4.3-2.2 4.3-1.3 0-.5-4.1-.5-4.1z" fill="#fff"/><path d="m282.4 287.2-.7.1c0-.1.3-.1-3.5.3-2.3 7.9 5.9 8 4.2-.4zm-1.5 3.8c-.2.4.1.6-1.2.6-.3-1.3-.2-1.6 0-2.6l1.3-.1c.1 1.1-.1 1.8-.1 2.1z"/><path d="m276.7 288.1c.5 5.6-1.1 5-2.6 5s-.6-4.8-.6-4.8z" fill="#fff"/><path d="m277.6 287-.9.1c0 1 .1 1.5-.1.1l-3.9.3c-2.4 8.9 6.8 8.6 4.9-.5zm-2 5c-.2.3-1 .3-1.5.3-.3-.6-.2-2.2-.1-3.2l1.8-.2c.3 2.3-.2 2.8-.2 3.1z"/><path d="m253.3 249.4c1.4 0-32.4 2.3-25.2 5.3 2.3-1.1 13.6-2.4 16.1-2.7 9.9-1.1 11.6-.8 9.1-2.6z"/><path d="m276.1 206c2.3 5-6.2 8.5-19.9 20.1-2.2 1-4.9.2-6-2.1l-11.4-23.8c-1-2.2-.2-4.9 2.1-6 28.9-18.6 20.3-15.7 35.2 11.8z" fill="#a1141c"/><path d="m275.3 206.3c.8 1.9-.4 3.5-1.9 4.9l.6.6-.5-.7-17.8 14.1.5.7-.3-.8c-1.6.9-4 .2-4.8-1.7-11.2-25.3-11.8-23.8-11.8-25.4 0-2.9 1-2.6 20.9-15.1l-.4-.7.3.8c1.6-.9 4-.2 4.8 1.7l10.4 21.6.8-.3c-1.5.6-.7.3.8-.3l-10.6-21.4c-.8.3-1.3.6 0 0-1.2-2.5-4.2-3.8-7.2-2.5-26.1 16.4-16.6 10.4-18.8 11.8l.4.7-.3-.8c-2.5 1.2-3.8 4.2-2.5 7.2l11.4 23.8c1.2 2.5 4.2 3.8 7.2 2.5 18.6-14.6 18.5-14.3 19.9-16.5 1-1.7 1.1-3.2.4-4.8 0 0-1.6.7-1.5.6z"/><path d="m265.5 184.6c-1-2.2-3.8-3.2-6-2.1l-15.4 9.6c13.2 24.1 6.1 30.5 30.3 10.5z" fill="#f6a800"/><path d="m275.2 202.2-8.9-18c-1.2-2.5-4.4-3.9-7.3-2.4-14.6 9.4-16.3 9.3-15.7 10.6l9.6 20c1 2.8 5.5 3.7 7.4 2.4 14.2-11.5 15.5-11.4 14.9-12.6zm-9-18-.3.1c.1 0 .3 0 .3-.1zm-6.9 29.2c-1.6.8-3.9.1-4.8-1.8l-9.3-19.3c15.1-9.4 14.5-9.2 14.6-9.1 1.6-.9 4-.2 4.8 1.7l8.6 17.3z"/><path d="m256.6 207.9c-1.1.2-1.2-.6-1.9-1.1-2.6-1.4-5.3-.8-2.3-4.5 4.5-5.7 7.4 4.7 4.2 5.2z"/><path d="m263.3 206.7c-4.8-1.4-4.9-5.8.9-4 .5 1.2.7 1.5 2.2 1.2.3 1.5-1.2 2.6-2.6 2.4z"/><path d="m264.8 200.2c-.6-.2-3.4-1-1.8-2.3 2-1 7.7 3.4 5.6 5.5-1.2-1.2-2.7-2.7-3.8-3.2z"/><path d="m266.6 196.3c-1.6.5 1.6 3.5 2.6 2.3 1-1.3-1.1-3.1-2.3-3z"/><path d="m254.5 198.2c-1.4-.3-1.7-1.9-3.5-1.6-7.8-2.9 10.2-3.4 3.9 1.6z"/><path d="m260.2 196.6c-2.7-.9-7.9-6.2-1.2-4.6 1.5-5.5 5.8-2.9 4.7 2-.5 0-1 0-1.5 0-.6-1-1.2-1.3-2.5-1.2.9 1.6 1.8 1.7.5 3.8z"/><path d="m260.2 200.1c-1-.1-2.4-1.1-1-1.6 1.5-.4 3.1 1.3 1 1.6z"/><path d="m256.7 199.5c-.8-.1-1.9-.9-.8-1.3s2.4 1.1.8 1.3z"/><path d="m248.1 229-3.1.5c-.3.5-14.2 8-12 12.4 1.1.2 9.2-6.1 15.7-10.9z" fill="#fff"/><path d="m248.1 229-.2-.9c-.2 0-3.4.6-3.5.6.2.2-17.7 10.2-11.4 13.9 0-.3 0-.4 0 0 2.7-1 14.8-10.3 15.9-11.1.8-.7-.1-3.9-1.1-3.5l.3 1-.9.3.5 2 .9-.3-.5-.7c-.6.4-14.4 10.7-15.1 10.7l.2.5v-.5c-.2 0-.2 0-.2 0l.2.5v-.5c-.2 0-.3 0-.4.1l.2.9.9-.3c-1.5-3.9 9.3-9.5 11.6-11.4l-.4-.8.2.9 3.1-.5-.3-.9s-1.9.6 0 0z"/><path d="m229.6 237.6c-.7-1.3-5-7.4-5.7-8.9s-5.9-14.4-6.7-14.4c-.9 0-4.7-.9-6.7.7-2.9 3.1 10 11.8 8.3 25.4-3.6-1.1-6.1 7-2 8.4 2.8-2.3 12.3-5.6 14.4-6.3-.1-1.7-.6-3.7-1.6-4.9z" fill="#f6a800"/><path d="m230.5 236.9c-5.8-6.4-8.6-17-12.6-23.1-.8-.8-11.4-1.7-8.1 4.5 3.7 7.1 7.7 7.4 8.2 21.1-6.1-.3-4.9 13.6.8 8.9 2-1.7 14.9-5.5 13.4-6.1-.2-1.6-.7-3.7-1.7-5.3zm-7 7.3c-5.5 2.2-5.5 2.6-6.6 3.3-1.4-.9-1.4-2.7-1-3.8 1.2-4.3 3.5-1.2 4.1-3.5 2.2-16.1-18-27-3.2-25.3 4.1 6.7 4.4 12.9 12.4 23 .7.9 1.1 2.3 1.3 3.6-2 .8-4.6 1.7-7 2.7z"/><path d="m169.3 281s-1.7 16.7-10.2 19c-11.9 3.3-15.4-2.3-15.4-2.3s-1.9-1-2.4.7c1.7 23.1 37.3 16.1 38 .6 3.2 19.8 33.5 4 6.5-17.5z" fill="#fff"/><path d="m196.8 294.4c-3.4-7.6-10.6-13.4-10.6-13.5-13.8-.6-18.4-1.2-17.7 0 .8.1 1.3.2-.1 0-.5 5.9-3.7 16.6-9.6 18.3-4.7 1.3-11.2 1.9-14.4-1.9-3.8-2.6-5.1 2.3-3.4 5.5 8 19 33.8 11.9 38.1-.4 3.3 12.6 23.5 5 17.7-8zm-13.5 11.6c-1.8-1.6-3.4-4.7-3.2-6.8h-.1c-2.4-2.9-.8 1.9-5 6.8-9 10.5-32.2 9-33.1-7 .3-.7 1-.3 1.2-.3 3.8 4.2 10.9 3.8 16.2 2.3 7-1.9 9.9-12.9 10.7-19.2l15.2.6c17.1 12.7 10.8 29.5-1.9 23.6z"/><path d="m145.7 303.6c12.3 4.4 28.3 1.6 28.4-18.9 0-1.1-1.7-1.1-1.7 0-.4 31.3-30.9 12.8-26.7 18.9z"/><path d="m178.4 299.5c14.4 16.6 20.4-5.5 1.2-14.7-1-.5-1.9.8-1 1.5 19.6 11.5 10.5 24.5 1.5 12.7-.2-1.2-2.5-1.2-1.7.5z"/><path d="m282.4 289.5c-1.9-1.5-12 1.7-12-1 .7-5.5 10.5-3.4 13.2-7.5.9-4.9 9.3-2.4 11.2-3.6 9-9.2-6.6-30.9-9.7-42.2-10.1-36.9 31.3-42.3 17.8-76.1l4.5-9.6 7.1-1.9 9.4 5.9c13.4 47.8-38 46.9-18.6 83.1 7.8 14.6 12.6 54.5-12.6 56.1-5.2 0-9.5 4.1-11.9 2.1-1.8-1.5 3.6-3.8 1.6-5.3z" fill="#537225"/><path d="m316 196.6c11.2-11.8 12.8-30.4 8.6-43.7l-10-6.2-7.8 2.1-4.8 10.3c13.2 30.8-25.5 42.4-18.5 72.2.3 12 26.8 45.8 5 45.8-3.6 0-4 .8-5.6 3.6-2.4 3.1-9.8 2.5-12 5-6.1 8.5 8.9 2.8 11 4.9-2 1.6-3.6 5.4.7 5.5 2.5.1 6.4-2.7 10.3-2.7 2.9 0 6.1-.8 10.3-3.3 14.3-11.7 9.8-38.9 3.1-54-7.3-16.6-9-19.8 9.7-39.5zm-11.6 40.3c8.7 18.9 12.4 55.5-17.9 56.2-1.6.3-4.2 2.2-5.5 1 8-8.6-4.2-4.9-9.7-5.7 0-3.5 6.7-2.8 10.9-5.3 3.3-2 2.3-3.5 4.2-4.4 29.8 1.6-4.3-38.2-1.6-53.4-1-30.1 31.7-36.2 18.9-66.4l4.2-8.9 6.3-1.6 8.8 5.5c13 47.5-38.9 45.4-18.6 83z"/><path d="m287.2 283c-10.2 6.1 9.9 8 10.4 2.2-.1-2.5-5.5-4.6-10.4-2.2zm1.7 4c-.7-.1-2.7-.3-2.8-1.2 4.2-4.9 17.6.2 2.8 1.2z"/><path d="m315.4 195.9c16.6-17.5 8.6-42.6 8.6-42.6l-4.3-2.7c12.9 55-46.4 41.3-12.8 107.6 4.2 12.8-4.7 22-4.7 22l6.2 1.6c6.5-15.1 2.5-33.1-2.9-45.4-2-4.6-5.3-10.6-4.7-18.4.6-7.5 2.6-7.9 14.6-22.1z" fill="#a1141c"/><path d="m316 196.5c17.1-17.8 8.7-43.2 8.7-43.4-.3-.6-.1 0-4.7-3.1-.6-.4-1.5.2-1.3.9 6.7 25-1.3 32.2-15 49.9-26.4 34 17.6 50.3-2.2 78.7-.4 2.4 0 1 6.7 3.2 4.6-4.8 4.1-16.2 4.6-21 .2-16.6-10.8-27.1-11.1-43.6.8-7.2 1.7-6.6 14.4-21.6l-.9-.5c1.4 1.4 0 0-.7-.5-36.9 35 8.7 41.2-7.3 86.3l.8.3.3-.9-6.2-1.6-.3.9.6.6c19.5-18.3-17.7-50.7-1.6-72.9 10.1-17.6 27.3-24.9 19.5-57.4l-.9.2-.4.8 4.3 2.7.4-.8-.9.3c4 14 2.2 30.8-8.4 41.8 1.1.2.9 0 1.6.7z"/><path d="m303 144.7s-.9 9.4-3.4 13.8c-2.2 3.7-4.7 4.7-2.1 4.8s9.6-1.6 10.3-6.2.7-1.5.7-.3c4.3 11.9 8.7 6.6 6.7-3.7 1.4 2.5 11.4 6.4 14.6 3 0 0-15.9-11.9-17.1-15.1-1.2-3.5-9.7 3.7-9.7 3.7z" fill="#537225"/><path d="m321.1 148.2c-8.7-7.1-6.9-7.6-8.1-8.2-2.5-1.6-7.7 2.6-10.3 4.8l-.5-.1c.3 13.8-10.6 19.2-4.4 19.6-.1.3 9.1-.7 10.8-5.5 4.1 9.2 9.3 7.4 8.4-2.9 1.3 1.7 12.5 5.5 14.2.4-2.9-2.3-7.5-6-10.1-8.1zm-2.9 5.8c-3.5-3.3-4.2-2.6-3.2 2.2-.1 0 .2 5.4-1.3 6.3-.5.3-5.3-5.3-4.3-7.4h-.1c-.1-.6 0-1.1-.6-1.4-3.5-.5 1.4 7.9-11.2 8.6 4.3-4.2 5.5-12.8 6-17l.1.1c1.6-1.2 7.4-5.6 8.4-4.6 2.7 4.7 13.5 12.4 16.8 15.1-2.1.7-6.9.6-10.6-1.9z"/><path d="m202.9 143.7c9.9-19.2 6.4-35 6.4-35l3.9-2.4s-1 4.7 10 6.3c10.9 1.6 21.3 1.7 25.5 6.5 12.8 19.6-15.1 24-19.4 10.8l-8.4 39.4-19.2 1c0 .1.7-25.6 1.2-26.6z" fill="#fff"/><path d="m249.4 118.6c-6.8-7.6-27.9-4.2-34.1-9.7-1.6-.7-.5-3.9-2.5-3.2-3.5 2.4-4.2 2.1-4.2 3.2 0 1.2 2.8 15.8-6.4 34.5.9.4.5.3 1.5.7 6.2-12.4 8-25.9 6.6-35l2.2-1.4c3.5 9.3 28.4 4.2 35.5 12 7.3 9.4.8 17-7.3 17-7.6 0-10.4-6.6-10.5-6.6s-.1-.3-.2-.4c-2.6-5.9-9.1 38.8-9.9 38.8-.1 0 .8-.1-17.6.9 0-8.6 1-25.3 1-25.4-.2 0-1-.6-1.4-.7-.3.8-1.6 27.3-1 27.6.1.1.2.1.4.1.1 0 7.6-.9 19.6-.9 1.1 0 .3.1 8.6-37.6 10.6 14 31.7 1.2 19.7-13.9z"/><path d="m241 121.6c5.8 0 5.8 10.2 0 10.2s-5.8-10.2 0-10.2z" fill="#a1141c"/><path d="m246.3 126.7c-.2-7.9-10.8-7.6-10.7 0 .1 7.9 10.7 7.6 10.7 0h-1.7c0 3.5-3.8 5.9-6.1 3-4.9-6 5.7-10.9 6.1-3 .1 0 1.8 0 1.7 0z"/><path d="m208.4 155.9s6.9-25.6 8-30.4c1-4.8 5.2-4.3 5.1-1-1 3.3-9.2 63.5-13.1 31.4z" fill="#a1141c"/><path d="m215.4 125.3c-.6 2.7 2.7-10.4-8 30.7h.1c5 34.5 13.9-27.3 14.7-31.7.1-4.1-5.4-4.9-6.8 1zm-3.7 39.6s0 .1 0 0c-1.2-1.5-2.2-7.6-2.3-8.9h-.1c8.8-32.8 7.8-31.1 9-32.6 6.3-4.7-3.4 30-6.6 41.5z"/><path d="m273.1 146.6c-7.1-2.5-19.9 3-26.6 7.3-11.9 7.5-34.3 13.5-32.8 13.9-2.6 5.8-3.8 5.1 0 7.3 2.5 1.5 5.5 2.1 7.7.3 11.4-3.5 41.4-5.5 53.6-7.7 11.5-.6 5-18.2-1.9-21.1zm5.9 17.2c-1 1.8-2.7 2-15.1 3.5-17.7 2.2-41.6 4.5-43.7 6.6-1.8 1.6-5.3.1-7-1.2l1.9-4c2.8-1 23.5-8.1 32.3-13.6 13.5-8.3 33.5-14.2 31.6 8.7z"/><path d="m281.7 164.3c-8.1 1-62.6 7.8-62.8 10.1 1.6 8.7 1 10 2.3 10 8.6-1.7 64.2 8.4 65.9-6.9.6-5.1-.4-12.3-5.4-13.2zm3.6 13c-2.6 12.5-51.5 4.1-63.2 5.3l-1.2-7.7c64.1-10.2 60.7-9.4 62.2-8.1 2.2 2.3 2.4 7.2 2.2 10.5z"/><path d="m286.3 177.4c1.6-20.3-12.2-10-33.8-8.4 6 12.7 4.6 13.7 5.5 15.7 8.7.1 27.6 1.4 28.3-7.3z" fill="#f6a800"/><path d="m281.1 164.3c-1.6.5-30.6 2.6-29.5 5.1 9.3 17.7-1.7 16.8 20.2 16.4v-.1c6.6-.4 16.4-2 15.3-10.6.1-4.9-1.5-10.8-6-10.8zm4.4 12.9c-.4 5.3-8.5 6-13.8 6.6l-.1 1-.1-.9c-1.2 0 2.3.3-13-.1-.4-1.8-.4-5.2-4.8-14.2 32.2-3.9 31-8.6 31.8 7.6z"/><path d="m245.5 155.4c2 3.7 4.8 9 7.1 14 11.8-1.4 22.8-2.6 25-3.5 5.1-2 2.4-11.3-2-16.9-5.2-6.5-23 1.8-30.1 6.4z" fill="#f6a800"/><path d="m276.3 148.8c-5-7-25.8.6-31.6 7.1 7.4 13.8 6.7 14.5 8 14.5 16.7-2.9 39.7.9 23.6-21.6zm0 16.8c-2.8.7-13.5 1.9-23.1 3-2.2-4.6-4.7-9.3-6.6-12.8 7.5-4.2 20.8-11.8 28.4-6.1 3.8 4.5 7.6 14.8 1.3 15.9z"/><path d="m266 184.6h5.1c-1-4.2-2.7-11.1-4.7-17.9-1.9.3-3.9.6-6 .9 2.3 5.5 4.4 11.5 5.6 17z" fill="#fff"/><path d="m267.2 166.3c-.3-1.1-1.1-.4-6.9.3-.5 0-.9.8-.7 1.2 6.7 16.5 4.7 17.7 6.4 17.7 4.5 0 5.5.1 5.7-.4-.2-4.8-2.9-11.4-4.5-18.8zm-.5 17.6c-1.1-5-3-10.6-5.1-15.7 1.4-.3 2.8-.4 4.2-.6 1.7 6.1 3.2 12.1 4.2 16.2-.6.1-1.4.1-3.3.1z"/><path d="m260.8 168.3c2.1-.3 4.1-.5 5.9-.7-2.2-7.4-4.7-14.9-7.2-19.2-2.2.7-4.4 1.6-6.5 2.7 1.6 3.1 4.8 9.8 7.8 17.2z" fill="#fff"/><path d="m267.4 167.5c-2.4-6.2-3.6-16.1-8.3-19.8-6.1 2.4-6.8 2.5-7.1 3.2-.4.9 1.7 2.7 7.8 17.9.2.3.5.6.9.5l.1-1 .1.9c5.2-.7 7-.4 6.5-1.7zm-13.3-16.1c1.6-.8 3.3-1.4 4.8-2 2.5 4.6 4.9 12.3 6.4 17.4-1.3.2-2.7.3-4.2.4-2.5-6.6-5.3-12.5-7-15.8z"/><path d="m65.1 217.4c0 26.2 32.4 45.4 46.3 56.8 0 0 5.9-7.7 13.7-17.2-12.3-7.6-31.2-38.1-39.5-52-11 4.2-19.3 8.6-20.5 12.4z" fill="#fff"/><path d="m125.8 256.8c0-1.6-9.8-2-39.5-52.3-54.5 9.7 8.6 59.9 24.6 70.3 1.3.4 1-.2 2.2-1.6 13.9-16.9 12.9-15.8 12.7-16.4zm-14.7 16.2c-17.2-13.2-46.5-34.1-45.3-55.4h.1c1.6-4.3 14.1-9.5 19.2-11.5 7.8 13 25.9 42.4 38.5 51-6 7.5-11 13.9-12.5 15.9z"/><path d="m163 172-64.5-5s-7.1 2.4-7.5 12.7 8 11.9 8 11.9l68.4-9.7z" fill="#fff"/><path d="m163 172 .1-.9c-68.4-5.3-64.6-5.1-64.8-4.9-8.5 3.1-13.6 21.8 1 26.2 81.9-13.6 72-3 63.8-21.4v1l-.8.3 4 8.9-67.3 9.5.1.9.2-.9c0 .3 0 .3 0 0-10.5-1.9-8.8-20.3-.7-22.9-.2-.9.1.3-.3-.8l-.1.9 64.5 5 .3-.9c-.8.3-1.3.6 0 0z"/><path d="m167 179.8-68.6 11.9c-5.7 9-2.9 25.3 11.3 24.9l64.7-31.1z" fill="#fff"/><path d="m167 179.8-.2-.9c-73.9 12.9-68.6 11.6-69.2 12.2-6.2 9.4-2.7 27 12.4 26.2 68.2-33.1 64.9-30.8 65.2-31.8.6-.3-1.9-2.2-8.6-6.6l.4.9-.5.7 6.4 4.8-63.5 30.5.3.8v-.9c-12.5.6-16.5-14.2-10.6-23.5l-.7-.4.2.9 68.6-11.9-.2-1c-.5.7-.9 1.2 0 0z"/><path d="m98.4 191.7c-5.8 9-2.9 25.3 11.3 24.9l9.6-4.6c-1.7-7.5-5.1-18.2-6.6-22.8zm37.4 12.4c0-5.2-.7-12.5-3.9-18.2l-10.7 1.8c2 4.2 5.2 12.7 4.5 21.3z" fill="#f6a800"/><path d="m136.7 204.1c-.3-4.9-.4-14.5-4.8-19-.2.2-11.8 1.6-11.3 2.2 6.4 15.2 3.4 24.3 5.6 22.5 9.9-4.9 10.7-4.8 10.7-5.7zm-1.8-.4-8.3 4c.2-5-1-11.9-4.2-19.1l9-1.5c2.6 5.1 3.4 11.6 3.5 16.6z"/><path d="m98.5 166.8c-8.9 2.8-11 22.6.5 24.7l14.3-2c-.3-6.6-1-16.4-2-21.6zm29.7 2.4-11.2-.9c1.7 5.9 3.5 15.1 4.3 20.1l10.8-1.6c-.8-5.2-2.4-12.2-3.9-17.6z" fill="#f6a800"/><path d="m128.3 168.4-.1.8.1-.8c-11.7-.9-11.3-1.3-12-.6.9 6.1 3.4 15.5 4.1 20.8.1.4.5.8 1 .7l10.8-1.6c1.9.1-2.5-18.9-3.9-19.3zm-10.2 1 9.4.7c1.4 5 2.8 11.1 3.5 16.1l-9.1 1.3c-.8-4.8-2.2-12.5-3.8-18.1z"/><path d="m113.6 190c1.1-1.2.6-4.2-.1-11.9-.8-4.2.1-8.9-2.1-11.2-13.2-1-13-1.1-13.2-1 0 .1.1.3.1.4l-.1-.4c-8.1 3-13.1 20.2-.8 25.6-9.8 18.5 8 34.2 22.6 20.3-2.1-6.8-3.8-16.9-6.4-21.8zm-15.1-22.3 12.1 1c.8 4.8 1.6 15.2 1.8 19.7-3.4.7-6.1 1.1-8.2 1.5l-5 .7c-10.4-2-8.8-20.3-.7-22.9zm.5 24.8 7-1.2c3.1-.3 5.1-.3 6.3-.6 1.6 4.9 4.4 14.1 6 20.9l-8.8 4.2c-11.9.6-16.3-14-10.5-23.3z"/><path d="m277 174.5c-1.8.3-6.4.3-5.6-2.4 1.9-1.8 13.9-.6 5.6 2.4z"/><path d="m276.1 177.7c-2.9-2.3 2.2-2.9 3.6-2.2 2.9 2-1.9 3.3-3.6 2.2z"/><path d="m272.5 159c-5.5.4-5.5-1-3.7-2.1.9-.4 7.5-1.2 3.7 2.1z"/><path d="m271.3 155.5c-1.3.1-7.3 1.4-5.1-1.5 1.4-1.8 7.7-1 5 1.2z"/><path d="m256.1 163.6c-2.2.9-5.9-.3-2.4-2.4.6-.2 2.2-.2 2.8.1 1 .4 1 2.2-.4 2.1z"/><path d="m254.2 160c-1-.3-1.9.1-2.9-.2-4.2-2 5.6-3.8 3.5.3z"/><path d="m260.9 175.4c-1.6 1-4.4.1-2.4-1.8 1.4-1.1 4.4.3 2.4 1.8z"/><path d="m260.5 178.6c-.8 0-1.7.3-2.3-.1-3.4-3 8.8-2.8 2.3.1z"/><path d="m342.7 354.5s-1.8-13.9 7.5-20.5 17.3-2 19 1.2c5.5 22.8-36.1 28-23.6 49.1 22.6 20.5 17.7 13.8-6.1 26.4 0 0-8.4-13.5-7.4-27.2s5.2-24.1 5.2-24.1z" fill="#fff"/><path d="m355.4 360.7c42-30.6-15.4-47.8-13.7-6.5-5.1 4.8-5 4.7-5 4.9 0 .1-5.6 15.4-5.4 26.8.3 13.7 7 26 8.7 25.5 27.1-12.7 26-8.5 6.1-27.9-2-2-.8-5.2-1.4-5.2h.1c.2-.5-3.4-8.9 10.6-17.6zm-12 18.1c-.1.7-.5 4.2 1.7 6.3.8.6 13.3 12.4 14.8 14.4-2.2 2.1-16.7 8.6-20 10.1-8.1-12.3-8.6-32.2-1.8-49.5 5.2-5.1 5.3-4.6 5.3-5.6h-.7l.9-.1c-3.5-36.1 50.9-25.1 11.2 4.9-6.9 3.9-13.7 11.8-11.4 19.5z"/><path d="m347.1 354.1c.1 0 1.6 0 .3 0l.5.1v-.1c-.6 0-.8 0 0 .1.4-1.8 3.4-21.8 13.1-14.5 2.4 1.8 2.8 4.8-.4 7.8-7.2 6.8-15.4 19.7-15.5 19.8.3.3 1.1.5 1.6.5.2-1.6-.4 5.4 1.2-13.6l-1.6-.2c-1 13.2-1.8 14.1-.6 14.4.5.1.8 0 1.5-1 3.7-5.4 9.7-14.2 14.8-18.9 6-5.5 2.2-12.2-6.1-12.2-7 .6-9.3 17.4-9.5 17.4v.3c.5.1-1.1-.1.7.1z"/><path d="m340.6 372.6c.2.1 1.7 1 0 0-3.6 7.6-2.1 19.5 6.9 29.7.9.9 2-.4 1.3-1.1-9.4-11.3-9.7-21.9-6.7-27.6 21.2-40.1 21.2-43.8-1.5-1z"/><path d="m361.8 405.9c21.7 0 21.7 32.2 0 32.2s-21.7-32.2 0-32.2z" fill="#fff"/><path d="m379.3 422c-2.9-31.8-51-13.1-29.9 12 11 10.6 29.9 3.2 29.9-12h-1.7c-.1 20-31.5 19.7-31.5 0s31.4-20 31.5 0c.1 0 1.8 0 1.7 0z"/><path d="m361.3 410.8c13.6 0 13.6 22.1 0 22.1s-13.6-22.2 0-22.1z" fill="#fff"/><path d="m353.3 430.2c6.9 7.4 19.4 2.3 19.4-8.4-1.8-22.3-33.1-8.9-19.4 8.4zm-1.7-8.4c-.1-13.3 19.3-13 19.4 0 .1 12.9-19.3 13.5-19.4 0z"/><path d="m361.1 420.2c-2.1-3.9-2.5-5.1-3.6-4.5-.4.2 0 1.2 2.1 5.4-3.5 2.2-4.6 2.4-4 3.5.7.9 1.6.2 4.8-1.9.5 1 1.1 2 1.7 3.3.7 1.1 2.1.1 1.6-.9-.7-1.2-1.3-2.3-1.8-3.3.9-.6 1.9-1.2 3.1-1.9.9-2.6-.2-2-3.9.3z"/><path d="m383.3 401.2c-4.6 12.3-6.1 13.9-4.5 14.5s1.1-2.2 6.1-13.9c.5-1.1-1.2-1.7-1.6-.6z"/><path d="m334.8 434.2c-1-.4-1.6 1.5-.4 1.6 13.9 3.7 15 5.1 15.3 3.5.1-.3-1.5-.9-14.9-5.1z"/><path d="m399.5 401.5c-27.2-1.1-35.2-1.2-35.1-.7-4.2 12.1 10.2 8.5 22.7 21.6.3.4 1.1.3 1.3-.2 11.3-20.6 11.6-19.9 11.1-20.7zm-12.1 18.9c-2.7-2.4-11.1-9.5-17.7-11.1-4.3-.7-4.9-4.6-3.9-7.3l31.5.6-.9 1.6c-.9-.2-2.2-.3-3.9-.3-1.1 0-1.1 1.7 0 1.7 1.3.1 2.3.1 3.1.1l-1 1.8-4.4-.3c-1.1 0-1.3 1.5-.2 1.7 1.5 0 2.7.2 3.6.3l-1.1 2.1c-3-1.2-4.6-2.5-5.1-1.1-.5 1.3 1.3 1.4 4.2 2.6l-.8 1.5c-.7-.4-1.7-.9-2.8-1.5-1.1-.4-1.7 1.3-.6 1.6 1 .3 1.9.8 2.7 1.1l-.8 1.4c-.8-.7-2-1.5-2.9-2.2-.9-.6-1.9.7-1 1.4l3.1 2.3z"/><path d="m399.4 431.6c-26.1-5.8-19-7.4-23 3.7.2-.1.4-.1.7-.1l-.6.2c5.8 15.1 5.5 15.8 6.3 15.8.5.2.6 0 4.8-4.7l2.2-2.5c.1-.1.2-.2.2-.3.7-.8 1.5-1.7 2.4-2.6.1 0 .2-.1.3-.3.8-.9 1.7-1.8 2.6-2.9l.3-.3c1.2-1.4 2.6-2.9 4.1-4.5.5-.6.3-1.3-.3-1.5zm-4.5 4.5c-2.8-2.2-4-4.1-4.8-3-1 1 1 1.8 3.7 4.2l-1.6 1.7-3.7-3.7c-.8-.8-2 .4-1.2 1.2 1.6 1.6 2.8 2.9 3.8 3.8l-1.7 1.9c-.7-.7-1.6-1.7-2.8-3.1-.9-.9-2 .4-1.3 1.1 1.3 1.3 2.2 2.5 2.9 3.3l-1.2 1.3c-2.6-2.5-3.4-4.2-4.4-3.2s.8 1.8 3.3 4.5l-2.6 2.9-5.1-13.8 2-6.3 17.4 4.2z"/><path d="m369.9 440.3c-.2-.4-.6-.6-1-.5-11.9 3.1-11.5 2.9-11.7 3.5-7 13.8-8 12.3-6.4 14 .5 0 3.4 1.4 12.8.5 8.6-.8 11.7-2.9 11.8-3.1.9-.7 0-.6-5.5-14.4zm.3 14.6c-.2-1.2-.5-3.2-.7-6.4-2.5-2.4-1.6 1.1-1 6.8-1.2.3-2.6.5-4.3.7.5-1.3 1.1-3.4 2.1-6.6.3-1.2-1.5-1.4-1.6-.4-.7 3.5-1.5 5.8-1.8 7.2-.7.1-1.3.1-2.1.1.6-1.3 1.5-3.6 2.9-7.3.4-1-1.2-1.7-1.6-.6-1.3 4.3-2.4 6.6-2.8 7.9-.3 0-2 0-2.6 0 .7-1 1.5-2.5 2.6-4.5.4-1.1-1.1-1.6-1.6-.7-1.2 2.2-2 4-2.4 5.2-1-.1-2-.2-2.8-.3l6.2-11.3 10.1-2.8 5.1 11.8c-.8.2-2 .7-3.7 1.2z"/><path d="m348.6 413c-10.1 2.2-11.2 2-11.2 3.3h.1c.3 3.6-2.7 19.2-7.4 26.2-.2.6 1.9 1.6 4.7 2.6.1 0 .1.1.2.1h.1c.9.3 2 .7 3 1 0 .5.2.5.5.2 1 .3 2.1.6 3.1.8.1.4.3.4.6.1 3.6.8 6.8 1.1 7.3.1 1.3-.6-.2-3 .6-13.9 1-6.3 1.5-18.7-1.6-20.5zm-.4 20.4c-.3 7.1-.1 11 0 12.6-.5.1-1 .2-1.5.2.3-1 .5-2.5.7-4.4 0-1.1-1.5-1.2-1.7-.2-.3 2-.4 3.5-.3 4.6-.8-.1-1.5-.2-2.3-.3.4-.9.7-2.3 1.1-4.1.2-1.2-1.6-1.5-1.7-.3-.4 1.8-.7 3.1-.7 4.1-.7-.2-1.5-.4-2.2-.6.5-1.2 1.2-2.9 2-5.3.4-1-1.5-1.6-1.6-.4-.8 2.3-1.3 4.1-1.5 5.4-.8-.3-1.5-.5-2.2-.8.6-1.1 1.3-2.7 2.5-5.1.4-1.1-1.2-1.6-1.6-.7-.9 2.5-1.7 4.1-2.2 5.2-1-.4-1.8-.8-2.5-1.1 2.9-4 7.1-21.1 6.9-25.2l8.7-2c2.3 11.9.4 12 .1 18.4z"/><path d="m358.2 437.6c.2-1-1.5-1.5-1.7-.2-.8 8.7-1.9 10-.3 10.3.4 0 .4-1.8 2-10.1z"/><path d="m362.7 438.3c.2-1-1.6-1.5-1.6-.3l-1.4 8c1.8 3.2 1.7-.9 3-7.7z"/><path d="m365.6 437.8c0-1.1-1.7-1.1-1.7 0 .1 6.2-.6 8 .9 8 .5.1.7-1.9.8-8z"/><path d="m368.6 436.5c-.5-.9-2.1-.4-1.6.9 4.4 8.7 6.4 7.6 1.6-.9z"/><path d="m371.7 434.8c-.9-.9-2 .4-1.3 1.1 3.2 3.3 4.2 5.9 5.3 4.8.4-.3-.6-1.7-4-5.9z"/><path d="m374.2 432.5c-1-.8-1.9.9-1 1.4 7.3 6.4 9.4 5.3 1-1.4z"/><path d="m377.1 428.5c-4.9-.4 4.8 5.5 5.1 6.1 3.7-.2.4-2-5.1-6.1z"/><path d="m386.1 430.1c-6.8-5.9-7.4-7.6-8.5-6.5-1 1 1.3 1.8 7.4 7.8.7.6 2.1-.4 1.1-1.3z"/><path d="m345.9 381.6s4.7-2.8 5.8-5 4.8-2.6 5.2-5.2c.3-2.6 10-6.3 7.8-9.1s-18.4-13-20.7-11.5c-2.2 1.5-3.4 3-2.4 4.5.6 1-1.6-.6-3.3 1.4s.3 2.3-.9 2.9c-2.4 1.1-3.5 3.4-2.8 5.6.5 1.4-1.2 1.2-2.2 2.2-4 5.3 11.3 13.2 13.5 14.2z" fill="#a1141c"/><path d="m345.9 381.6.4.8c.1-.1 3.3-2 4.5-3.5 2-2 1.2-2.2 2.5-3.1 1.6-.9 4.3-2.8 4.6-4.9 1.6-2.1 7.9-4.9 7.9-7.9-2-5.2-26.6-21.4-24.9-7.5l.5-.3h-.6c-.1.5.4 0 .6 0h.2l-.6-.4c-.1.2-.2.3-.2.4h.8c-.5-.3-1.1-.7.1 0l-.4-.7c-.1.1-.2.1-.3.3l.7.4c-.3-.4-.8-1.3-.1-.1l-.1-.7s-.1 0-.3.1l.3.6c-.1-.7-.2-1 0-.3v-.4l.1.4s0-.3 0-.4c-2.8-.5-5.7 2.6-4.5 4.5l.3-.1h-.3v.1l.3-.1h.2l-.4-.3c-.1.1-.2.3-.2.3h.5l-.4-.3.3.2-.2-.3-.1.1.3.2-.2-.3c-3.4 1.5-4.1 4.4-3.4 6.8.3 0 .3 0 0-.1v.1c.3 0 .3 0 0-.1-10.3 4.3 7.8 16 12.4 17l-.3-.5.2-.9c-1.4 0-13.4-8-13.4-11.4 0-2.4 2.2-1.6 3-3.2.6-1.2-.9-2.8.5-4.4 1.8-2.2 3.3-1 2.6-4 1.1-2.6 4.4-.2 4-2.8-1.1-1.1.7-2.7 2-3.5-.1-.3-.1-.3 0 0 1.9-1 21.1 11.2 19.6 11.7.7 1.3-7.9 5.5-8.8 9.2-.7.7-1.9 1.2-3.5 2.5-1.3 1.1-.5 2.3-6.5 6l.3.8c.2-1 .3-1.4 0 0z"/><path d="m341.1 355.9c10.2 6.6 11.5 8.6 12.3 7.2s-.8-1.3-11.3-8.7c-1-.7-1.9.9-1 1.5z"/><path d="m337.3 359.6c7.5 7.4 8.1 9.6 9.3 8.5s-1-1.7-8-9.7c-.9-.8-2.1.4-1.3 1.2z"/><path d="m334.2 366.4c5.4 4 6.9 6.4 7.7 5 .3-.3.3-1-.2-1.2-5.5-4.3-8.3-7.6-7.5-3.8z"/><path d="m293.5 339.4s2.9 8.1-2 18.4c-4.8 10.3-7.8 10.3-7.8 10.3s-3.4 5.8 8.5 5.8c1.6 0 15.4 4.3 19 3.5 3.6-.9 10-26.5 8-28.4s-16.5-8.9-18.3-10.6c-2.1-3.1-15.5-1.6-7.4 1z" fill="#fff"/><path d="m293.5 339.4-.8.3c2.2 3.3-.3 22.2-9.1 27.6l.1.4v-.4h-.1l.1.4v-.4c-5.2 4.8 4.8 8.4 8.8 7.5 3 .5 16.1 4.5 18.9 3.4 4.1-.8 10.9-27.3 8.4-29.8-1.8-1.8-17.7-9.6-18.3-10.6-4.1-4.4-17.9-.8-8.3 2.6l.3-1c-.7.2-1.3.4 0 0l.1-.9c-.3 0-1.4-.3-1.6-.5-.1 0-.1 0-.3.2h.3v-.2l-.2.2c.3 0 .4 0 0 0l.3.1v-.1h-.3l.3.1c-.1 0-.1 0 0 0 .8-1.4 7.2-.6 8.4.9 2 2 16.8 9.2 18.3 10.7l.2-.2c-.3.1-.3.2 0-.1l-.2.1c0 8.6-3.5 22.1-7.6 27-2.3.8-17.9-3.4-18-3.4-1-.2-10.6.3-8.6-4.7-.7-.4.3.2-.8-.4v.9c9.7-3.4 14.1-28.7 10-30.5z"/><path d="m203.5 278.5c.2 1.1-1.2 2.4-2.3 1.8-.2-.2-1.1-2.4-1.2-2.9-1-2.8 3.6-3.5 3.6-1.2z"/><path d="m209.6 284.3c-1.6 1.9-5.6-1.6-2.4-3.9 3.1-5.2 2.2 1.8 2.4 3.9z"/><path d="m214 284c-4.8-.9 3-9.3 1.9-1.8z"/><path d="m218.8 286.8c-2.4-.6-.9-3.7 0-5 1.7-1 1.8 2.3 1.5 3.3z"/><path d="m219.2 295c-1.7 1.9-4.9-1-2.1-2.6 1.1-.8.7-3.2 1.7-3.2 2.1.3 1.8 4.6.4 5.8z"/><path d="m216.6 301c-1 .3-2 .6-2.3-.6-.4-1.3 1.2-1.7 1.1-2.8 2.5-.7 2.2 2.1 1.2 3.4z"/><path d="m212.7 301.9c-4 1-6.7-.6-2.1-3.3.5-3.1 2.9-1.4 2.5 1z"/><path d="m213.1 304.4c-1.2 1.6-1.9-1.4 0-.7z"/><path d="m208.9 297.8c-4.8.4-1.6-4.1.4-.7z"/><path d="m212.4 294.4c-5.3 1-.3-8.7 2-5.1 1.7 2.2-.4 3.9-2 5.1z"/><path d="m208.7 290.1c-1.6 1.2-4.6 1-3.8-1.7 1.3-3.4 6-1.8 3.8 1.7z"/><path d="m202.5 286.9c1 3.1-2.2 4.7-4.1 2.2-2.7-3.5 2.8-6.5 4.1-2.2z"/><path d="m199.1 304.8c1.2 1.5.2 3.9-1.5 3.9-2.1-1.4-1.2-5.8 1.5-3.9z"/><path d="m203.9 302.8c.3.9 1.8 5.4-.3 4.8-1.1-.3-2.2-4.7-1.3-5z"/><path d="m208.3 304.9c2.5 5.1-4.2-2.1-.3-1z"/><path d="m202.9 297.2c-.6 1.4-2.1 2.6-3.3 1.7-.6-.4-.1-1.3-.3-2-.3-.7-1.3-1.1-1.8-1.7-2.1-2.9 3.5-4.1 4.3-.6 0 0 1.6 1.2 1.1 2.6z"/><path d="m131.4 194.2c-3 1.2-7.5-.6-3.8-3.4 2.2-.9 6.2-.3 5.2 2.7z"/><path d="m131.3 201.3c-1.4.2-2.3 1.2-3.2-.5-1.6-3.2 3.6-4.2 5.6-3.2 1.6 1.4-1.7 1.4-1.8 2.4z"/><path d="m110.3 209.7c-3.4 2.3-7.8.8-4.4-3 3.1-1.6 10.3-.4 4.4 3z"/><path d="m107.5 200.3c-1.2.3-2.9 1.3-4.2.7-1.5-.9-2.7-3.5-1.2-4.7 3.1-1.6 9.1.1 5.4 4z"/><path d="m302.2 214.6c-3-2.2-10.3-13.8-10.3-13.8s.8-3.9 3-2.6c1.3.5-.1-3.1 3.5-3.2-1.6-2.7 1.2-5 3.7-4.2-1.4-9.9 15.6 6.5 15.7 5.7.3 2.2.6 4.9-2.8 5.2.6 2.3-.1 4.5-3 5.1.9 2.4-2.2 6.3-5 5.3.1 0-1.8 4.8-4.8 2.5z" fill="#a1141c"/><path d="m295.3 182c-3.8 1.6-22 4-24.5 8.9-1.9 3 2.6 13.1 5.4 15.5s12-.6 12-.6l-3.5-8.1s2.9 1.1 7.3-7.1c2.1-3.9 8.4-2.2 9.9-6.6 1.4-4.3-5.8-1.8-6.6-2z" fill="#a1141c"/><path d="m296.2 181.3c-5.9 2.7-24.8 2.2-26.5 11.9 1.9 11.9 5.9 18.3 18.9 13.8 1.5-.5-.4-2.6-1-1.9-1.7.7-6.6 1.8-9.9 1.3-3.2-1.1-10.3-14.3-4.2-16.9 6.7-4.1 13.1-3.9 18.8-5.6 2-.6 2-1 2.9-.9s4.7-1.1 5.7-.2c0 5.3-7.5 3-9.8 7.6-1 2.1-3.9 6.7-6.1 6.7-1-.4-1.7 1.2-.6 1.6 4.3 1.3 8-8.6 10.1-9.3 2.3-1.1 8.3-1.8 8.3-6.3.4-3.8-5.7-1.8-6.6-1.8z"/><path d="m318.7 196.4c-1-.6-17.3-16-17.4-6.5-2.3-.3-4.8 2.2-3.8 4.4-1 .1-2.4 1.4-2.5 2.9-2.2-.6-3.9 2.7-3.6 4.1.1.1 7.4 11.6 10.4 13.8l-.1.2c2.2 2.1 5.4-.4 6-2.2 2.9.3 5.7-2.8 5.2-5.7 2-.1 3.6-3.1 3.1-5 3.1.1 3.2-4.8 2.7-6zm-2.1 3.9c-6 1.1 1 4.1-5.1 5.8-1.2 1.4.6 5.5-4.4 5.3-1.6-.2-2 4.3-4.4 2.6l.1-.1c-2.9-2.2-8.5-11-9.9-13.1.3-1.3 1.1-2.3 2.2-1.6l7.2 7.7c.8.8 2-.3 1.3-1.1-4.1-4.1-5.9-6.5-7-7.6.1-1.4.9-2.2 2.3-2.2 1.2 1.3 3.7 3.5 8 7.8.7.7 2.1-.3 1.1-1.3-5.6-4.8-7.7-7.2-8.8-8-1-1.8.9-3.5 2.7-2.9 1 .9 3.7 2.5 9.4 6.8.3.3 1 .2 1.2-.2 1.5-1.1-9.3-7.4-9.6-8-.1-1.1.2-1.8.3-1.9 2.3 0 11.7 7.3 13.6 8.7.1.8.3 2.8-.2 3.3z"/><path d="m317.4 135.9c0-5.4-5.4-8.6-11.3-8.6-13.8 0-14.1 18.8-.3 18.8 5.9 0 11.6-4.9 11.6-10.2z" fill="#369ba1"/><path d="m318.3 135.9c-2.6-18.2-34.3-6.8-20.5 8.3 7.7 7 20.4.2 20.5-8.3zm-12.5 9.4c-12.7.3-12.5-16.8.3-17 14-.3 13.2 16.7-.3 17z"/><path d="m138.9 65.4c-3 .1 12.3 53.6 12.3 53.6l9.3-4.7c0 .1-17.2-49.1-21.6-48.9z" fill="#a1141c"/><path d="m161.4 114.2c-.3 0-17.5-55.6-23.6-48.5-1.5 4.3 12.3 53.9 13.2 54.2s6.6-2.9 10-4.7c.4-.2.6-.6.4-1zm-22.1-47.6c5.2 5.2 18 41.6 20.1 47.4l-7.6 3.9c-.9-3.3-12.5-43.5-12.5-51.3z"/><path d="m106.2 77c-3.5.6 24.5 60.7 24.5 60.7l9.4-9.1c.1.1-28.8-52.4-33.9-51.6z" fill="#a1141c"/><path d="m140.8 128.3c-3.4-5.5-28-51.7-34.8-52.2v.1c-5.3.1 19.8 54.2 24.4 62.5.7.3.7.1 10.2-9.3.3-.4.3-.8.2-1.1zm-34-50.1c6.2 4.2 28.6 43.8 32.2 50.4l-8 7.8c-.4-.8-24.2-52.7-24.2-58.2z"/><path d="m73 101.5c-3.1 1.8 46.5 51.5 46.5 51.5l5.4-10.3s-47.5-43.8-51.9-41.2z" fill="#a1141c"/><path d="m125.6 142c-9.4-7.9-40.6-39.6-53-41.4-2.8-1 3.2 12.8 47.8 52.7 0-.5 6.5-11 5.2-11.3zm-6.2 9.6c-4.9-4.9-42.7-43-45.5-49.2 7.6 1.9 44.2 35.4 50 40.6z"/><path d="m53.5 155.7c-1.5 3.3 60.9 12.1 60.9 12.1l2.9-10.8c-.1-.1-61.7-6.1-63.8-1.3z" fill="#a1141c"/><path d="m118.1 156.6c-6-1.3-62.3-6.1-65.2-1.1l-.3-.1c2.4 6.7 55.6 11.6 61.7 13.3.9.8 1.7-3.1 3.8-12.1zm-4.3 10.2c-8.5-1.1-51.2-7.4-59.1-11 6.7-3.1 54.2 1.3 61.4 1.9z"/><path d="m176.1 102.9 15.2-.2 27.1 73.7-53-7.4z" fill="#f6a800"/><path d="m219.3 176.2c-27.6-78.7-26.7-74.4-27.9-74.4-14.5.1-15.8-.3-16.2 1-11.2 70.3-10.9 66.2-10.5 66.8.6.6-3.4-.3 53.6 7.9.9-.1 1.2-.7 1-1.3zm-52.9-8 10.4-64.5 13.9-.2 26.4 71.8z"/><path d="m179.4 102.9-2 67.7-12-1.6 10.6-66.1z" fill="#fff"/><path d="m175.7 163.2c.8-.8-.5-2.1-1.3-1.1-1.9 2.4-3.8 3.4-2.7 4.2.4.3 2-1.1 4-3.1z"/><path d="m175.5 155.3c.9-.5.1-2.1-1-1.5-5.4 4-7.2 4.1-6.4 5.4.3.5 2.1-.9 7.4-3.9z"/><path d="m176.1 144c1.6-4.4-5.5 2.2-6.1 2.5-.8 3.3 1.5 1.1 6.1-2.5z"/><path d="m173.2 136.9 4.1-3.1c.9-.7-.2-2-1-1.4l-4.1 3.1c-.9.7.1 2 1 1.4z"/><path d="m179.4 102c-2.3.2-3.9-.5-4.2.7-13.2 70.2-11 66.2-10.6 66.8.6.6-.3.1 12.7 2.1.5 0 .8 0 1-.8 1.5-67.8 3.1-68.8 1.1-68.8zm-2.4 55.7c-.3-.2-.7-.3-1 0-6.1 4.8-7.9 4.8-7 6.1.3.3 2.3-1 8-4.6l-.3 10.6-10.3-1.5 2.3-14c.1.2.5.3 1.4.3l6.7-5.3c.9-.7-.2-2-1-1.4-.2.4-5.9 4.1-6.9 5.8l1.9-11.6c.2.2.6.2 1.3.2l5-3.9c.9-.7-.2-2-1-1.4-.3.4-4.1 2.8-5.1 4.3l1.8-11c.5.2 2.6-.6 4.7-1.5.9-.4.4-2-.7-1.6-1.8 1.1-3.2 1.4-3.9 1.9.9-5.3.7-4.5.7-4.3.2.4.9.6 1.2.3 2.8-1.6 3.3-1.9 3.3-1.9zm1-35.9c-.2-.2-.5-.2-.9-.1-1.6 1.2-3 1.6-3.5 2.2l.6-3.9c.4.3 2.3-.5 3.9-1.1zm.2-4.5c-.3-.2-.6-.2-.9 0-1 .6-2.2 1-2.9 1.6l.6-3.6c.9.7 1.7-1 2.9-1.9.8-.8-.4-2-1.2-1.2-.4.5-1 1-1.4 1.4l.8-4.6v.1c.3.3 1.9-.8 2.2-1 .2-.4.2-2.1-.1 9.2zm.3-10.4c-.2-.5-.9-.7-1.4-.3-.2.2-.6.5-.9.9l.6-3.7h1.7z"/><path d="m184.5 107.8c-.7-.4-1.8-2.9-2.6-2.6-1.4 1.1-.4 3.3 1 3.5 1.2.7.3 1.8 3.9 1 2.8.3 3.5-2.1 3.3-4.4-.4-1.9-1.5-1.2-2 .1-.6 1.7-.1 2.2-2.6 2.2z"/><path d="m184.5 114.4c-.4-.3-2-2.4-2.4-2.3-1.7.6.1 2.6.9 3.3.2.4-.4 1.9 2.1 2.8 2.6.9 1.8-1.6 3.4-3.1 2.5-2.4 2.9 1 5.1.8.3-1.6-1.6-4.6-3.3-4.8-3.1-.1-2.3 4.6-5.8 3.3z"/><path d="m185.7 125.5c-2-1.2-2-1.6-2-3.8-1.7.3-2.1 3.4-1.1 4.8.8 1 1.7.7 1.8 2.2-.1 1.3-1.3 4.8 1 4.1.4-.3.3-2.2.6-2.8 1.1-1.7 5.4-6.4-.3-4.5z"/><path d="m192.3 124.9c-.4-1.7-6.7-4.9-4.3-6.1 2.1-.9 6.1 2.8 6 4.5z"/><path d="m196.3 134.3c-1.6-2.1 1.1-4.1-3-3.7-8.5-3.3 7.7-7.1 5.4 3z"/><path d="m191.4 134.5c-1.3-.3-2.4-2.9-.6-3.2 1.6-.3 2.4 2.2 1.4 3.1z"/><path d="m188.9 137.1c-2.1 2.2 2.4 2 1.6 4-1 2.1-3.2.4-4-.8-2-2.9 1.5-10.9 2.4-3.2z"/><path d="m181 140.2c1.2 1.1 1 3-.3 4-.4.4-1.8 5.2-2.1 1.6.5-1.8-.4-11.7 2.4-5.6z"/><path d="m196.4 142c-2.5-1-.6-2.9-1-4.4-.4-1.2-3.4-3.7.1-2.8 1.5.5 3.2 1 3.5 2.6.6 1.2 1 1 .1 2.1-1 .8-2 1.5-2.7 2.5z"/><path d="m201.9 144.4c.8-3.5-4.3-3.8-2.4.3-.3 3.2-3.5-1.1-4.4 1.4-.6 1.7 1.1.8 1.7.9 1.2.2 1.8 1.3 2.9 1.9 4.1 0 3.7-1.9 2.2-4.5z"/><path d="m204.5 157.2-1.6-.7c-1.5.3-1.4-2.1-1.9-2.9-4.6 6.7 2.4 4.3 2.6 6.8-.2 2.2-1.9 0-2.5-.1-2-.2-1.7 1.6-1 2.3.4.4 1 .4 1.3 1.2 1.4 6.1 6.5-4.8 3.1-6.6z"/><path d="m206.5 157.3c-4.8-1.8-3.5-10.3.2-2.9z"/><path d="m197.6 156.9c-.8-1.5-5 .5-4.6-2.3.2-1.2 2-1.6.8-3.1-4.1-3.2-5.7 9.8 3 7.2 0-.1 1.7-.2.8-1.8z"/><path d="m208.6 166.4c-.9-1.4-2.8-4.5.7-3.6 1.3.3 4.1 3.8 1.3 3.5z"/><path d="m181.6 164.3c.3 3.7-3.5-1.6-.5-2.3.7-.3.9.3 1.2-.6-1.2-2.4-3.3-10.1 1.9-6.6.9.8 1.7 2 2.6.8.7-.9-.3-2 1.1-2.1 2.3-.2 2.8 4.7.8 5.4-1.4.5-5.4-3.6-5.7-1-.4 2.9 5.5 1.3 5.1 3.5 0 3.8-4.8.4-6.5 2.9z"/><path d="m181.5 168.6c-29.4-13.1-32.1 27.8 4.7 18.4z" fill="#a1141c"/><path d="m182.5 168.5c-.6-1-6.3-3.1-12.7-3.5-10.2 0-14 11.8-9.6 18.1 4.2 7.2 21.8 6.7 26.4 4.9 1.4-.5 0-1.5-4.1-19.5zm-22.4 8.5c0-13.2 15.5-10.7 20.7-7.7l4.3 17.2c-10.3 1.9-25 .9-25-9.5z"/><path d="m207.6 193.2c.1 8.2 20.1 1.9 15.6-5.5-2.2-3.6-2.9-2.2-2.9-2.2 12.8-13-8.2-15.6-14.1-12.8z" fill="#a1141c"/><path d="m220.3 185.5s-3 2.3-5.2 2.3z" fill="#a1141c"/><path d="m222 185c11.2-14.9-12.8-15-16.2-12.9-.4.1-.7.5-.6.9 1.5 22.1 1.3 20.5 1.5 20.5 2.6 11.5 25.9-.3 15.3-8.5zm-13.2 9.2c-.5-1-.4-2.7-1.6-20.8 12.5-2.9 21.5 2.6 12.8 11.3-.2 0-2.9 2.2-4.8 2.2-1.1 0-1.1 1.7 0 1.7 2.2 0 5.5-2.2 5.8-2.5 7.3 5.3-8.5 13.6-12.2 8.1z"/><path d="m191.4 168.1s12.7-2.1 17.6 1c4.8 3 5.4 23.7-.3 25.4-5.6 1.6-18.8-11.1-18.8-11.1z" fill="#a1141c"/><path d="m212.6 174c-1.4-5.1-3.2-7.4-12.5-7.4-5.5.3-8.7 0-9.6 1.4-1.4 15.4-1.7 15.4-1.2 15.9 16.1 16 27.7 17.3 23.3-9.9zm-1.8 16.1c-1.7 10.6-18.9-6-20.1-7.1l1.4-14.1c18.4-2.6 21.7 2.3 18.7 21.2z"/><path d="m188.1 182.8c-41.8 9.4-25.7-27.1 6.5-6.5 0 0 9.3-3.8 11.3-.3 1.9 6.7-23.1 6.8-13-4.3 0 0 13.2-3.3 15.5.7s3.5 10-5.6 12.2-13.2-1.8-13.2-1.8z" fill="#a1141c"/><path d="m207.8 170.4c-3.7-2-16-2.1-17.3 3.1-33.6-18.6-40.4 21.5-1.8 9.5 3.8 5.7 31.5 2.6 19.1-12.6zm-16.5 5.6c3.9 1.7 2.9 1.2 6.3.2 1.9-.6 6.1-1.5 7.4.3 1.5 3.7-15.3 5.1-13.7-.5zm-.9 6.2c-.4-.4-1.3-1-1.7-.2-40.1 9.2-25-23.5 1.1-6.7-1.6 8.8 20.5 6.4 16.7-.1-2-3.4-8.4-1.6-12-.3-.3-.1-1.2-.3-2.5-1 .4-.7 1.2-1.8 1.2-1.8 27-6.7 12 16.4-2.8 10.1z"/><path d="m204.2 189.6-2.6 18.1s2.2 7.1 5.1 6.7c2.9-.3 5.4 1.4 7 .4s5.4.2 5.7-.7c.4-.9 3.5.8 4-.9s4.7-.5 4.2-2.6c-.4-2.1 4.1-.2 2.9-4-1.5-4.8-13.6-16.2-18-20.7z" fill="#a1141c"/><path d="m185.9 180.5s-21.3 3.4-16.7-6.3c1.8-3.8 17.7 1.9 17.7 1.9z" fill="#a1141c"/><path d="m187.2 175.3c-1.6-.4-16.9-6.1-18.8-1.5-4.6 11.2 16.4 7.4 17.6 7.4 1.2-.3.8-2-.4-1.6-4.2.3-19.2 2.5-15.3-5.4 3-2.9 21 5.8 16.9 1.1z"/><path d="m231.3 206.7c-3-6.9-18.9-22.1-19.1-21.2-7.7 3.6-8.5 3.5-8.7 4-.1 0 .1-1.4-2.7 18.4 1 2.2 2.9 8.4 6.8 7.3 2.2-.1 4.5 1.5 6.5.3 1.7-1 4.4.5 6.1-.8 1.3.2 3.5.6 4.1-1.3 1.1-.4 4.8-.7 4.3-2.7 1.1-.4 3.8-.6 2.7-4zm-1.4 1.4c-.4.6-2.3.6-2.6 1.1-.7-1.1-1.6-2.7-2.9-4.9-.6-1-2.1.1-1.4 1 2.1 2.8 3.1 4.6 3.8 5.5-1.1.4-3.3.3-4 1.5-.4-1.5-1.1-3.9-2.2-7.6-.4-1-2-.5-1.6.6 1.3 3.7 2 6.1 2.5 7.6-.9-.1-1.9-.3-2.4.3v-.1s-.2 0-.5 0c-.2-1.6-.5-4.3-1-8.7-3.5-3.6-.1 8.5-.4 8.6-1.8-.3-3.3.5-4.4.7l.9-9.2c-2.3-4.8-2.2 8.3-2.6 8.9-.5-.1-1.1-.3-1.8-.3.3-8.6 1.6-10.3.1-10.6-1.9.3-1.3 11-1.8 10.6-2.3.8-4.4-4.6-4.7-5.9l2.4-17 7.4-3.1c1.7 2.1 19.3 18.9 17.2 21z"/><path d="m180.7 168.1s4.8-2.2 7.4.3c1.2 1.2 2.4-4 5.4 0 2.9 4 4.8 19.1 2.8 20.2-2.1 1.1-12.9 3.5-13 1.1-.2-2.7 2.5-19.4-2.6-21.6z" fill="#a1141c"/><path d="m191.3 165.9c-1.2 0-2.2 1.2-2.7 1.6-1.1-1.9-10.4-1.5-8.1 1.4 4.1 2 1.9 18.2 1.9 20.4 0 4 10.6 1.5 14.3 0 3.4-4-.3-23.4-5.4-23.4zm4.7 21.7c-.7.7-9.4 3-11.7 1.7.2-3.6 2.1-17-1.6-21 4.3-1.2 4.5 1 5.6 1 1.4 5.8-.2 9.5-.2 9.6 0 1 2.4 2.5 2.4-4.5 0-2.4-.3-4.7-.6-5.8 5.9-5.2 6.8 18.3 6.1 19z"/><path d="m193 188.5c16.6 0 16.6 25.4 0 25.4s-16.6-25.4 0-25.4z" fill="#369ba1"/><path d="m193 187.6c-17.7 0-17.7 27.2 0 27.2s17.8-27.2 0-27.2zm0 25.5c-15.5 0-15.6-23.6 0-23.7 15.5-.1 15.6 23.7 0 23.7z"/><path d="m189 197.7c1.7 1 3.2 15.4-1.7 11.7 0 0-3.7-3.5-2.9-10.4.6-5.1 3.2-3.4 4.6-1.3z" fill="#a1141c"/><path d="m190.9 200.2c-.9-2.8-1.4-2.9-1.2-2.9-5.9-8.2-9.3 6.7-3 12.8 3.1 2.2 4.6-.4 4.6-4.2-.1-.7.3-3.5-.4-5.7zm-2 9c-4.6-2.1-4.2-11.8-2.6-12.5 4 .3 4 11.1 2.6 12.5z"/><path d="m195.1 202.8c-1.7-4-1.2-9.1-.2-9.3 1-.3 7.2 2.7 7.5 7 .3 5.6-4.5 8.8-7.3 2.3z" fill="#a1141c"/><path d="m202.1 197c-12.3-14.2-11.1 9.9-2.7 10.3v-.1c3.5-.6 5.3-6.4 2.7-10.2zm-3 8.7c0-.1 0-.1 0 0-.1 0-.1 0 0 0-3-.1-5.2-7.8-3.9-11.1 4.5 1.5 9.3 7 3.9 11.1z"/><path d="m304.6 177.2s-8.3 2.5-8.3 4.8c0 2.2 6.9 3.6 8.3-4.8z" fill="#fff"/><path d="m304.4 176.4c-18.7 5-2.1 15.4 1.1 1 .2-.6-.4-1.2-1.1-1zm-7.2 5.8c-.8-.8 4-2.9 6.2-3.8-1.4 5.1-5.1 4.9-6.2 3.8z"/><path d="m196.7 230.6c2.2-2.2 16.5-5 19.2-4.4.1 0-4.4 17.2-19.2 4.4z" fill="#f6a800"/><path d="m234.5 197.7c5.7 0 5.7 9 0 9s-5.7-9 0-9z" fill="#fff"/><path d="m234.6 196.9c-6.9.1-6.8 10.8 0 10.7 6.9-.1 6.7-10.8 0-10.7zm2.5 7.9c-3.2 3.2-8.3-1.4-5-5.2 3.2-3.3 8.3 1.9 5 5.2z"/><path d="m241.6 224.9c2.3-5.4 10.9-1.8 8.6 3.6-2.4 5.4-10.9 1.8-8.6-3.6z" fill="#fff"/><path d="m245.8 221.4c-12.3 1.6-.8 17.9 5.3 7.6 1.6-4.1-1.7-7.6-5.3-7.6zm-3.3 3.9c1.8-4.4 8.9-1.4 7 3-1.9 4.5-8.8 1.4-7-3z"/><path d="m197.3 221.3c-6.4 4.9-8.5 13.5-2.1 19.9-19.4-.5-11.5-20.4 2.1-19.9z" fill="#a1141c"/><path d="m197.3 220.5c-17.7 0-20.4 23.7-1.2 21 0-1.6-9.8-9.9 1.7-19.6.6-.5.2-1.4-.5-1.4zm-7 11.4c0 3.9 2.4 7.1 3.1 8.2-14.3-1.2-9.7-16.5 1.5-17.7-2.3 2.6-4.6 6.1-4.6 9.5z"/><path d="m203.9 239c6.8 0 6.8 10.2 0 10.2s-6.8-10.2 0-10.2z" fill="#a1141c"/><path d="m208.3 239.9c-5.3-5.3-14.5 2.8-8.7 8.5 5.3 5.2 14.4-2.7 8.7-8.5zm-7.5 7.2c-4.1-3.9 2.1-9.9 6.2-5.9 1.8 1.7-2 9.8-6.2 5.9z"/><path d="m304.7 340.7-10.3 33.7c4.5 1 13.9 3.7 16.8 3 3.6-.9 10-26.5 8-28.4-1.3-1.4-9.5-5.5-14.5-8.3z" fill="#f6a800"/><path d="m304.7 340.7-.9-.3c-10.7 35.6-11 34.1-9.7 34.8 2.5.5 14.6 4 17.1 2.9 4.1-.8 10.9-27.3 8.4-29.8-2.4-1.9-17-10.4-16.1-8l1.2.4-.4.8c7.6 4.2 13.2 7 14.4 8.1l.2-.2c-.3.1-.3.2 0-.1l-.2.1c.8 5.7-4 23-7.4 26.9-2.3 1-13-2.2-16.6-2.9l-.2.9.9.3 10.3-33.7-1-.2c-.1.1-.9 1.6 0 0z"/><path d="m215.9 225.3c-1.2-.2-14.2.8-19.6 4.5-2.2 3.1 11.7 9.1 15.1 4.8 3.9-3.2 6.5-8.7 4.5-9.3zm-6.3 5.7c-1.9 1.9-5.7.9-5.8-2.3 2.5-.8 4.2-1 6.5-1.2.5 1.3.2 2.7-.7 3.5zm-11.3-.1c1.4-.6 2.7-1.1 3.8-1.6 1.3 7.3 11.7 4.2 10-1.9.8-.1 1.6-.1 2.4-.3-3.2 8.2-8.4 9.8-16.2 3.8z"/><path d="m291.4 334.5c6.3 0 6.3 10.2 0 10.2s-6.3-10.2 0-10.2z" fill="#fff"/><path d="m297.1 339.6c0-8-11.3-7.9-11.4 0-.1 7.6 11.3 8.2 11.4 0h-1.7c0 3.9-4.5 5.6-6.7 3-5-5.9 6.1-11.2 6.7-3 0 0 1.8 0 1.7 0z"/><path d="m281.9 360.6c6.7 0 6.7 10.6 0 10.6-6.8-.1-6.8-10.6 0-10.6z" fill="#fff"/><path d="m288 365.9c.3-7.8-12-8.2-12.1 0-.1 7.7 12.1 8.2 12.1 0h-1.7c-.7 8.3-12.9 3.1-7.4-3.1 2.5-2.8 7.4-.7 7.4 3.1.1 0 1.8 0 1.7 0z"/><path d="m310.7 350.7c-2.6 2.8-4.5-1.3-2.9-3.6 1.4-2.1 5.6 1.4 4.8 2.7z"/><path d="m315.4 354.3c-7 1.7-2.8 9.7-1.4 4.3.9-1.2 3-2.4 1.4-4.3z"/><path d="m310.2 355.5c.1 2.2-1.7 2.2-1.7 4.3-5 2-4.8-10.6 1.7-4.3z"/><path d="m312.5 364.4c.4 2.3-4 4.5-4.9 1.7-.8-2.7 2.9-6.2 3.9-2.7z"/><path d="m305.2 365.1c-.3 2.7-2.6 2.5-2.5-.2.1-1.7 1.8-5.4 2.3-1.7z"/><path d="m305.5 372.9c-.8 1.3-4.1 2.4-4.9 1-.4-1 .4-.9 1-1.3 1.8-.4 1.6-1 1.6-2.5 1.7-2.5 3 1 2.3 2.8z"/><path d="m309.8 374.6c-3.6-2.7-1.9-6.4.4-5.2 1.6.6-.2 3.9-.4 5.2z"/><path d="m294 374.2c1.5.3 2.2 1 2.4.7 5.1-9.3 9.9-33.3 9.9-33.3l-4.7-2.7s-6.1 30.7-12.5 35c0-.1 2.9 0 4.9.3z" fill="#a1141c"/><path d="m293.8 375.1c1.5.3 2.6 1.7 3.4.3 5.9-10.6 10-33 10-33.6.3-1-1.6-1.3-5.1-3.6-.3-.2-.5-.2-.8 0-2.4 6.5-6.7 30.6-12.6 34.9-1.7 2.4 3.5 1.2 5.1 2 0-.2.3-1.7.3-1.7-2.2-.3-4.6-.4-5-.4v.9l.4.7c6.4-4.1 12.8-35.4 12.8-35.5l-.9-.2-.4.8 4.7 2.7.4-.8-.9-.2c-.6 2.3-4.5 22.9-9.8 33.1l.6.3-.3-.5c-.1.1-.2.2-.3.3l.6.3c-.1-.1-.8-1.1 0 0v-.6c-.1 0-.2 0-.3.1l.3.5c0-.5 0-1 0-.2l.1-.4h-.1v.4c.1-.5.1-.5.1-.3 0-.1 0 0 0-.2-.4-.2-1-.6-2.2-.8.1 1 .1.7-.1 1.7z"/><path d="m366.5 398.9c-1.7-2.9-5.5-3.6-8.6-1.8l-19.6 11.8c-3 1.8-4.2 5.6-2.4 8.5 1.7 2.9 5.5 3.6 8.6 1.8l19.6-11.8c3-1.8 4.1-5.6 2.4-8.5z" fill="#fff"/><path d="m367.3 398.5c-2.2-3.4-6.6-4.2-9.8-2.1l-19.6 11.8c-3.7 2.2-4.6 6.7-2.7 9.6 2.2 3.4 6.7 4.1 9.8 2.1l19.6-11.8c3.7-2.3 4.5-6.9 2.7-9.6zm-3.7 8.1c-20.3 11.9-19.9 12.6-22.7 12.6-5.5 0-7.1-6.9-2.2-9.6 22.9-12.7 20-15.7 27-10.3h-.1c1.7 2.8.4 5.9-2 7.3z"/><path d="m360 405.1c1-.3.4-2-.7-1.6-8.9 4.3-18.2 9.5-18.2 9.5-.7 4 .1 1.1 18.9-7.9z"/><path d="m168.7 453.5s-.5-.9.7-4.5z" fill="#a1141c"/><path d="m169.5 453.1c-.7.3-.7.3 0 0 0 .1-.2-1.4.8-3.8.4-1-1.2-1.7-1.6-.6-1.3 3.5-1 6.4.6 5.5.3-.2.4-.8.2-1.1z"/><path d="m162.5 449.4s-.2-1.5 1.1-3.8z" fill="#a1141c"/><path d="m163.3 449.3c-.4.1-.4.1 0 0 .1-1 .2-1.9 1-3.3.6-1-.9-2-1.6-.9-.9 1.7-2.1 5.1-.3 5.1.6 0 .9-.4.9-.9z"/><path d="m156.2 444.4s.2-1.4 1.8-3z" fill="#a1141c"/><path d="m157 444.5c-.4-.1-.4-.1 0 0 0 0 .2-1.1 1.6-2.5.4-.3.3-.9 0-1.2-1.4-1.4-4.8 4.5-2.5 4.5.4.1.8-.3.9-.8z"/><path d="m105.1 184.4c-6.8 3.5-9.3-.3-7.9-2.5 1.6-1.9 12.2-1.3 7.9 2.5z"/><path d="m103.3 176.6c-2.9 1.5-8.7-2.3-4.1-4.2 2.7-.7 6.1-.6 5.7 2.9z"/><path d="m126 182.6c-3 2.2-5.7-2.2-3.6-3.5 2.3-1.3 9.1.6 3.6 3.5z"/><path d="m127.5 175.8c-1.3 0-6.5.3-5.6-2.4 1.1-1.9 7.8-.7 5.6 2.4z"/><path d="m74.4 304.9c1.8 3.1 39.2-42.9 39.2-42.9l-10.1-8.7c0-.1-31.3 47.7-29.1 51.6z" fill="#a1141c"/><path d="m104.1 252.6c-1.4-1.8-30.6 44.5-30.5 52.7 6.8 2.2 35.8-38.5 40.7-42.7.9-1.4-1.7-1.7-10.2-10zm-28.9 51.3c1-7.1 24.7-43.5 28.4-49.4l8.8 7.6c-.2.2-31.5 38.8-37.2 41.8z"/><path d="m74 270.6c-4.9 8.7-17.2 26.7-16.2 28.5 1.8 3.1 43.5-47.2 43.5-47.2l-9.6-11.2c0-.1-11.4 21.1-17.7 29.9z" fill="#a1141c"/><path d="m92.3 239.9c-2.4-.7-.5-.7-9.3 14.3-14 23.8-29.1 44-25.5 45.8 7.5-1 42.4-46 44.5-47.7.8-1.2-.7-1.4-9.7-12.4zm6.5 13.5c-5.7 6-31.2 37.8-39.9 44.4 2.2-5.9 13.1-20.9 32.9-55.5l8.3 9.7c-.3.2-.7.8-1.3 1.4z"/><path d="m79.2 221c-85.3 37.9-78.9 45.5 5.1 9.6z" fill="#a1141c"/><path d="m85.2 230.3c-5.1-9-4.9-10.7-6.2-10-11.7 6.2-31.4 12.3-53 25.7-1.8 1.5-14.2 8.4-8.4 9.9 15.5-3.4 63.3-21.6 67.6-25.6zm-67 23.8c7.3-8.8 50.9-27.1 60.6-31.9l4.2 8c-4 1.6-58.7 23.9-64.8 23.9z"/><path d="m36.2 211.9c-14.7.2-35.4-3.3-35.3-1.1.4 10 78 10.7 78 10.7l-4.8-10.6c0 .1-24.1.9-37.9 1z" fill="#a1141c"/><path d="m74.9 210.4c-28.3-.4-42.1 1.9-57.2-.3-13-1-17.8-1.8-17.7.8.5 10.6 71.8 11.7 79.6 11 .6-.8.1-1.1-4.7-11.5zm-73 .8c28.1.9 25.3 2.9 71.7.6l4 8.9c-9.2-.2-71.4-1.4-75.7-9.5z"/><path d="m58.4 252.2c-12.6 11.4-22.5 23.3-20.9 26.3 1.8 3.2 53.5-36.9 53.5-36.9l-6.8-13.2c0 .1-13.2 12.3-25.8 23.8z" fill="#a1141c"/><path d="m85 227.9c-1.6-1.9-12.9 11.3-27.4 23.9-7.4 7.8-20.5 17.5-20.9 27.1.6 1.8 5-.9 6.7-1.9 17.6-10.7 48.1-34.7 48.2-34.8 1.1-.9-.5-1.8-6.6-14.3zm-46.7 49.8c8.7-17.5 19.4-21.9 45.6-47.8l6 11.5c-17.1 12.8-38.9 30-51.6 36.3z"/><path d="m179.4 185.9c4.8 0 4.8 7.8 0 7.8s-4.8-7.8 0-7.8z" fill="#fff"/><path d="m174.9 189.8c0 6.3 9.2 6.3 9.2 0-.1-6.3-9.2-6.3-9.2 0zm6.5 2.1c-2.8 2.7-6.7-1.6-4-4.3 2.9-2.8 6.6 1.8 4 4.3z"/><path d="m181 189.8c0 2.1-3.1 2.1-3.1 0 0-.9 3.1-2.1 3.1 0z" fill="#fff"/><path d="m176.9 189.8c0 3.2 4.8 3.2 4.8 0 .1-3.2-4.8-3.2-4.8 0zm2.1.5c-.8-.9.9-2 1-.5 0 .7-.6.8-1 .5z"/><path d="m177.4 206.8c4.8 0 4.8 7.8 0 7.8s-4.9-7.8 0-7.8z" fill="#fff"/><path d="m177.4 206c-6.1 0-6.1 9.5 0 9.5 2.3 0 4.7-1.8 4.6-4.8-.1-2.6-2-4.7-4.6-4.7zm-2 2.6c1.9-1.9 4.8-.4 4.8 2.2-.3 5.7-8.6 1.7-4.8-2.2z"/><path d="m178.9 210.7c0 2.1-3.1 2.1-3.1 0 0-.8 3.1-2.1 3.1 0z" fill="#fff"/><path d="m179.7 210.7c0-3.2-4.8-3.2-4.8 0s4.8 3.2 4.8 0h-1.7c-.2 1.4-1.8.3-1-.5.3-.3 1-.2 1 .5.1 0 1.8 0 1.7 0z"/><path d="m162.7 221.6-4.6.4-27.3 31.4s-2.3 9.1 4.5 9.8c11.5-.1 19.6-20.3 25.6-27 0-6.7.9-11.1 1.8-14.6z" fill="#a1141c"/><path d="m158 221.2c-28.2 31.4-28.5 32.6-28 32-2.6 17.3 13.9 11 19 1.7 17.1-24.8 11.5-13.5 13.4-27.7 1-7.7 3.3-6.6-4.4-6zm2.1 15c0 .1-12.5 17.9-12.5 17.9-4.8 8.2-18.3 13.4-15.9 0 0-.1-3.2 3.7 26.8-31l2.9-.3c0 .5-1.3 5-1.3 13.4z"/><path d="m154 211.5c-16.9 12.9 17.3 19.3 19.5 8.2.6-6.6-13.9-13.8-19.5-8.2z" fill="#a1141c"/><path d="m167.2 210.6c-4.3-2.2-10-2.9-13.6.3l-.1-.1c-22.6 21 41.9 20 13.7-.2zm4.5 11.1c-6.6 6.7-30.9 1.2-17.5-9.3 5.7-6.3 22.6 3.4 17.5 9.3z"/><path d="m154 205.8c-16.9 12.9 17.3 19.3 19.5 8.2.6-6.7-13.9-13.8-19.5-8.2z" fill="#a1141c"/><path d="m174.4 213.7c-1.1-6.7-14.4-14.7-20.9-8.6-17.9 14.8 18.6 22.1 20.9 8.6zm-2.7 2.3c-6.9 6.9-31.2.7-17-9.7l-.1.1c5.7-5.7 22.2 3.9 17.1 9.6z"/><path d="m162 193.2c13.2 0 13.2 19.9 0 19.9s-13.2-19.9 0-19.9z" fill="#a1141c"/><path d="m154.2 195.5c-13.5 16.1 17.4 27.6 18.9 7.6-.1-9.3-12-14.5-18.9-7.6zm1.3 14c-11.2-13.5 14.4-23.3 15.8-6.4 0 8.1-10.1 12.1-15.8 6.4z"/><path d="m155.3 253.5c-2.8.9-3.6-3-.2-3.9.7-.2.8.3.7 1 2.1 2 1.8-4.7-3.1-.6-2.1 2.1-.7 5.5 2.9 4.5.7-.3.5-1.1-.3-1z"/><path d="m156.4 246.4c.8.2 1.3.6 1.5 1.4.1.4 1.3.1 1.2-.3-.3-1-1-1.4-2-1.6-.3-.1-1.4.3-.7.5z"/><path d="m166 265.8c-1.3 1.7-2.6 6 .6 6.3.3 0 1.4-.5.7-.6-4.3-.7 1.8-7.6-1.3-5.7z"/><path d="m165.9 274c-4-2-2.2-3.5-2.3-3.4.3 0 .7.3 1 .5s1.3-.3 1.1-.4c-2.3-1.9-6.1 1.5-1 3.6.2.1 1.2-.1 1.2-.3z"/><path d="m164.2 275.5c-.9-.5-2.6-2.9-3.3-1.4.8.6 2.7 2.9 3.3 1.4z"/><path d="m162.7 277.3c-1-.2-1.7-.8-2.4-1.4-2.8-.2 1.1 2.2 2.1 2.3.6.1 1.1-.8.3-.9z"/><path d="m161.7 281.1c-.1 1.5-1.4 1.9-2.2.7-1.9-2.7 3.3-5.7.4-5.2-5 3.7 1.1 10.6 3 4.4 0-.6-1.2-.5-1.2.1z"/><path d="m162.5 266.3c-.4-1.1-1.1-1.4-1.9-1.2v-.1c-.7-2.9-5.4-.3-6 2.6 0 .4 0 .7.1.9-.1 0-.2 0-.4 0-2.1 0-2.2 1.4-1.5 2.8-1.7-.1-2.6 1.3-2 2.8-1.6.8-3.2 2.7-3.4 4.6.1 2.3 1.3 2.2 2.5 1.3-.1.4-.1.7-.1 1.1.1 1.8 1.7 2.2 2.9 1 .8-.4 4.1-6 1.4-4.2-.5 1-1.9 3.9-2.7 4.1-1.4-.8.6-5 2.1-5.5.3.1.6.3.9.4.1.1.1.3.2.4.2.5 1.3.2 1.2-.3-.3-1.3-1.1-1.6-2.1-1.4l-.1-.1c.1-.1.1-.2.1-.3-.2-1.2-.9-1.6-1.7-1.5-.8-1.5-.4-2.7 1.7-1.2.4.4.8.8 1.2 1 .2.2.4.4.7.6.2.3 1.2-.2 1-.4l-.1-.1.1-.1c-.8-.4-4.7-4.1-2.5-4.5.3 0 .5-.2.6-.4.4.8 1.2.6 2.2.1-.1.2-.1.4-.1.5.6 4.5 5.6-1.5 5-2.4.4.1.8-.1.7-.5zm-11.3 8.7c.3.4.6.8 1.1 1.1-.1 0-.2.1-.2.1-4 7.3-4.8 1.2-.9-1.2zm4.5-7.2c-.3-1 3.2-4.7 3.6-2.4-.1 0-.3.1-.5.1-.4.8-2.8 4.3-3.1 2.3zm2.3 1.7c-.3-1.2 2.6-4.8 3.3-2.8 0 .1.1.1.1.2-.2 0-.4.1-.6.3-1 1.6-2.3 4.2-2.8 2.3z"/><path d="m131.9 287.1c-.6 2 4.2-2.7 3.4-2.9-1.3.1-2 1.8-3.4 2.9z"/><path d="m132.9 283.2c.1 1-3.2 4.4-.8 3.2.7-.7 3.1-4.6.8-3.2z"/><path d="m131.9 280.4c-.5 1.8-1.8 3.1-2.9 4.7 1.1 1 5.9-6.6 2.9-4.7z"/><path d="m143.4 272.1c-.9-3.5-6.7 3.7-3.1 2.1 3.3-6.7 2.2 4.5-1.6 3-4.1-2 1.6-10.1 1.2-5.8-.2.5 1 .4 1.2-.1 1-4-5.8-1.7-5.1 3.9 1.5 6.5 8.1 1.6 7.4-3.1z"/><path d="m144.6 269.2c-.8-.9-2-1.1-2.7-2.1-.3-.3-1.4.1-1 .5.7.9 2 1.1 2.7 2.1.2.4 1.3-.1 1-.5z"/><path d="m141.5 265.6c.7.6 4.7 3.2 4 1.1-1 0-3.9-3.3-4-1.1z"/><path d="m144.7 260.9c8.1 3.1-.1 4.9 2.8 5.3 6.8-3-4.2-8.2-2.8-5.3z"/><path d="m134.8 270.7c-1.6-1.2-8.9-7.3-8-1.6-1.3 0-2 1-1.2 2.4-11.2 7.3 1.9 14.6 5.8 3.5 1.1 0 1.6-1 2.1-1.9-.1-.3-.4-.3-.6-.4.9-.2 1.5-1.3 1.9-2zm-8.7 1.3c.3.3.7.8 1.2 1.1-3.2 2.9-2.8 5.2.9.6.6.3 1.5.9 2.2 1-2.6 9.6-13.9 4.5-4.3-2.7zm5.6 2.3c0 .2-1.5-.4-2.9-1.3.9-.5-.3-1.2-.9-.6-4.8-5.4 2.6-.5 4.2 1-.1.3-.3.6-.4.9zm1.3-2.3c-6.7-2.5-7.4-7.8.5-1-.2.4-.4.6-.5 1z"/><path d="m172.7 267.1s-10.2 11-11 13.8 3.6 6.4 6.1 4c2.4-2.4 7-18.8 7-18.8z" fill="#a1141c"/><path d="m174.4 265.4c-4.2 1.7-12.5 12.2-13.6 16.3 0 3.3 4.5 6.7 7.6 3.9.8 0 10-21.8 6-20.2zm-6.6 17.7c-2 4-6.1-.3-5.3-2.1 1.9-4.1 10.5-13.2 10.5-13.2l.3-.2c-.7 3-3.9 13.3-5.5 15.5z"/><path d="m175.3 266s-6.5 16.5-6.4 19.6 6.4 4.5 8.5 1.1c2-3.4 1.6-20.6 1.6-20.6z" fill="#a1141c"/><path d="m175.3 265.2c-5.1 8.6-6.7 18.8-7 18.4-2 6.1 7 7.9 9.8 3.5 2.1-3.2 1.7-16.4 1.7-21 0-1.3-2.1-.6-4.5-.9zm1.6 20.1c-.8 3.9-7.2 2.7-7.2.3 0-2.5 5.3-16.4 6.2-18.8l2.1.1c.1 8.2.1 12.8-1.1 18.4z"/><path d="m180.6 265.1s-3.5 18.4-2.8 21.5 7.7 2.5 9.2-1.5-2.6-20.9-2.6-20.9z" fill="#a1141c"/><path d="m185.3 263.8c-.2-.5-.8-.7-1.1-.6-3.6 1.2-4.2.8-4.4 1.7.8.2 1.3.3-.1 0-.2 1-3.4 18.3-2.7 21.7.8 3.9 9.3 3.3 10.9-1.4 1.5-5.7-2.7-21.1-2.6-21.4zm-1.1 23c-7.7 1.8-6.7 2.4-3-20.9l2.5-.7c.3 5.3 5.7 17.8.5 21.6z"/><path d="m181.1 263.8s4.8 18.2 6.7 20.5c2.7 3.3 10.1-.4 9.7-4.7-.4-4.2-13.3-18.4-13.3-18.4z" fill="#a1141c"/><path d="m194.3 272.2c-4-5.5-9.5-11.6-9.6-11.6-1-1-1.9.9-4.2 2.5-.3.2-.3.5-.3.9 1-.2 1.3-.3 0 .1.4 1.6 4.7 18.3 6.8 20.9 3.4 4.3 11.9-.9 11.2-5.4 0-.7-2.5-5.5-3.9-7.4zm1.8 9.5c-1.9 3-6.2 3.9-7.6 2.1-1.4-1.4-5.8-17.7-6.3-19.6l1.9-1.6c2.6 3.7 14.2 14 12 19.1z"/><path d="m181.4 247.1c17 0 17 25.4 0 25.4s-16.9-25.4 0-25.4z" fill="#369ba1"/><path d="m195.3 259.8c.1-17.7-27.7-17.7-27.7 0s27.8 17.6 27.7 0h-1.7c-2 22.3-35.4 8.9-20.7-8.4 7.4-7.4 20.7-2.2 20.7 8.4 0 0 1.8 0 1.7 0z"/><path d="m181.4 255.1c6.1 0 6.1 9.3 0 9.3s-6.1-9.3 0-9.3z" fill="#fff"/><path d="m187.1 259.8c-.1-7.4-11.3-6.9-11.2 0 .1 7.4 11.3 6.9 11.2 0h-1.7c-.3 7.2-11.6 2.6-6.7-2.7 2.4-2.5 6.7-.7 6.7 2.7z"/><path d="m352 540.3c-1 2 9.7 4.5 9.2 4.8 0 0-.5-6.8-2.2-7.3-6.8-1.6-7 2.5-7 2.5z" fill="#fff"/><path d="m351.1 540.1c.1.1-.4 2.2 3.1 3.2 3.2.9 6.1 2.4 6.5 2.4.7.4 1.6-.1 1.4-.8-.4-2.3-.6-7.3-2.9-8-4.7-1.4-8.1.8-8.1 3.2.1 0 1.4.3 1.3.3.5-2.4 4.2-2.5 6.1-1.7 1 1 1.5 5 1.5 6.6l1.2-.9c-6.7-3-8.7-2.6-8.7-4-.2 0-1.5-.3-1.4-.3z"/><path d="m292.6 497.5c-.2-3.5-6.8-1.8-4.9 1 1.3 1.6 4.8 1.3 4.9-1zm-3.4-.1c.3-.2 1.3-.2 1.6 0-.3.1-1.3.2-1.6 0z"/></svg>